<svg xmlns="http://www.w3.org/2000/svg" xmlns:xlink="http://www.w3.org/1999/xlink" width="359.356" height="268.261" viewBox="0 0 359.356 268.261"><defs><style>.a,.j,.n,.o{fill:#fff;}.a{opacity:0.29;}.b{fill:#e2878d;}.c{fill:#b30000;}.d{fill:#f9e5ef;opacity:0.33;}.e,.f,.g{fill:#eab7c2;}.f{opacity:0.36;}.g{opacity:0.24;}.h{fill:#e6141c;}.i{fill:#404040;}.k{fill:#0e2549;}.l{fill:#fbfbfb;}.m{fill:#e2474b;}.n{opacity:0.47;}.o{stroke:#e6141c;}.p{fill:#f9e8f2;}.q{fill:#4a4a4a;}.r{filter:url(#a);}</style><filter id="a" x="0" y="2.027" width="359.356" height="266.235" filterUnits="userSpaceOnUse"><feOffset dy="3" input="SourceAlpha"/><feGaussianBlur stdDeviation="3" result="b"/><feFlood flood-opacity="0.161"/><feComposite operator="in" in2="b"/><feComposite in="SourceGraphic"/></filter></defs><g transform="translate(-58.973 -317)"><g class="r" transform="matrix(1, 0, 0, 1, 58.97, 317)"><path class="a" d="M427.986,555.811a85.86,85.86,0,0,1-11.512,20.3l0,.006q-1.927,2.489-3.96,4.68c-.07.076-.138.15-.209.223-.018.02-.039.042-.059.063q-.748.8-1.51,1.564-.662.662-1.333,1.3-.845.8-1.7,1.552-1.5,1.318-3.027,2.494c-.129.1-.26.2-.391.3a54.648,54.648,0,0,1-12.2,7.033h0l-.017.007a47.012,47.012,0,0,1-10.724,3.018q-5.771.889-11.181,1.481c-.415.048-.831.092-1.244.137l-.55.057-.151.017q-5.513.568-10.683.875c-.486.03-.969.059-1.451.085q-1.756.1-3.474.166c-.4.017-.794.033-1.189.046l-.434.017-.884.028c-8.839.277-16.96.068-24.562-.354h0c-8.165-.452-15.734-1.15-22.954-1.754l-.788-.066q-2.343-.194-4.641-.371-1.371-.1-2.727-.2a163.269,163.269,0,0,0-24.776-.173c-.611.05-1.222.1-1.833.166-.222.02-.445.044-.666.068-2.636.277-5.285.657-7.962,1.161a96.91,96.91,0,0,0-14.541,3.928q-1.764.623-3.559,1.333s-.943.22-2.673.55c-1.143.22-2.629.487-4.414.774-3.8.611-8.964,1.307-15.053,1.791l-.057.006h-.015a183.927,183.927,0,0,1-26.162.251q-2.611-.166-5.276-.426a134.918,134.918,0,0,1-21.25-3.744q-3.722-.983-7.41-2.232c-.209-.07-.419-.142-.628-.216q-3.963-1.373-7.835-3.089c-.233-.1-.465-.207-.7-.312a87.971,87.971,0,0,1-11.728-6.5q-2.733-1.786-5.424-3.818c-.194-.146-.388-.294-.58-.439l-.3-.231c-12.8-9.887-24.447-23.777-30.659-40.236a73.587,73.587,0,0,1-3.709-13.565,69.515,69.515,0,0,1-.48-20.421,73.874,73.874,0,0,1,2.893-13.17,82.553,82.553,0,0,1,3.711-9.592c.7-1.516,1.558-3.854,3.076-6.764,3.8-7.29,11.728-18.158,31.469-28.625,11.25-5.965,26.336-11.8,46.685-16.766q7.449-1.819,15.859-3.472c.24-.046.478-.094.716-.144,17.591-3.6,31.8-12.208,45.062-22.341,4.624-3.533,9.134-7.253,13.633-11.008,2.529-2.112,5.054-4.235,7.595-6.345,21.361-17.735,43.755-34.434,78.106-34.432,65.21,0,83.314,45.446,90.482,111.946C439.956,508.94,436,536.168,427.986,555.811Z" transform="translate(-87.2 -352.45)"/></g><rect class="b" width="22.465" height="155.306" transform="translate(347.664 374.926)"/><path class="c" d="M1632.61,677.128v-16.68l.04-.129-.04-.03V643.9l.061-.2-.061-.044V629.282h-23.019v14.512l-.041.13.041.03V660.4l-.044.13.044.033v16.68l-.041.132.041.03v15.617l-.044.111.044.043v19.986l-.04.124.04.032v71.82h23.019V677.29l.043-.13Zm-.554-.415L1610.7,660.7h21.357Zm0-16.834-21.348-15.788h21.348Zm0-16.615-18.994-13.429h18.994ZM1612.1,629.836l19.379,13.7h-21.336v-13.7Zm19.39,30.315h-21.348V644.363Zm.009,16.838h-21.357V660.982Zm.554.554v15.351l-21.329-15.351Zm-1.1,15.244h-20.813v-14.98Zm-20.813.938,19.283,18.966-19.283.219Zm0,20.044,20.194,16.268h-20.194Zm0,70.82v-54h20.971l.2,0,.131-.372-20.8-16.759,19.448-.221.187,0,.142-.346-19.875-19.548h21.265l.2,0,.043-.135v91.385Z" transform="translate(-1262.205 -254.633)"/><path class="c" d="M600.684,900.014a4.527,4.527,0,0,1-4.522-4.522.277.277,0,1,1,.554,0,3.968,3.968,0,1,0,3.968-3.968h-.277V886.6a.277.277,0,0,1,.554,0v4.381a4.522,4.522,0,0,1-.277,9.036Z" transform="translate(-435.894 -464.222)"/><path class="c" d="M573.658,725.763a.277.277,0,0,1-.277-.277V705.373a.277.277,0,0,1,.554,0v20.113A.277.277,0,0,1,573.658,725.763Z" transform="translate(-417.318 -316.452)"/><path class="c" d="M663.449,725.763a.277.277,0,0,1-.277-.277V705.373a.277.277,0,0,1,.554,0v20.113A.277.277,0,0,1,663.449,725.763Z" transform="translate(-490.534 -316.452)"/><path class="d" d="M974.521,564.353H823.839L845.826,547h128.7Z" transform="translate(-621.541 -187.541)"/><path class="c" d="M842.206,545.5l-22.689,17.907H971.274V545.5Zm85.532.554h15.544l-15.544,16.382Zm-16.211,0h15.3l-15.3,16.374Zm-16.932,0h16l-16,16.4Zm-17.168,0h16.228l-16.228,16.4Zm-17.326,0h16.381L860.1,562.46Zm-17.634,0h16.681l-16.681,16.415Zm17.08.384v16.415H842.866Zm17.326.008v16.407H860.491Zm17.168,0v16.4H877.813Zm16.932.006v16.4h-16Zm16.211.022v16.374h-15.3Zm16.465-.008v16.382H928.105Zm.554-.417H960.98L944.2,562.469Zm-102.291.383v16.416h-20.8ZM970.72,562.853H944.6l17.17-16.8h8.948Z" transform="translate(-618.017 -186.318)"/><path class="e" d="M1613.09,355.028l-8.3-38.028-9.654,38.028h-7.529v23.629h32.9V355.028Z" transform="translate(-1244.316)"/><path class="f" d="M589.093,821.42l-9.237,5.534-9.237-5.534v-9.7h18.474Z" transform="translate(-415.066 -403.391)"/><path class="c" d="M1329.777,722.42a.277.277,0,0,1-.277-.277V702.777a.277.277,0,0,1,.554,0v19.367A.277.277,0,0,1,1329.777,722.42Z" transform="translate(-1033.855 -314.335)"/><path class="c" d="M1042.657,717.19h-2.842v-8.229h2.842a.277.277,0,1,0,0-.554h-2.842v-5.63a.277.277,0,0,0-.554,0v5.63h-14.749v-5.63a.277.277,0,0,0-.554,0v5.63h-2.681a.277.277,0,1,0,0,.554h2.681v8.229h-2.681a.277.277,0,1,0,0,.554h2.681v4.4a.277.277,0,0,0,.554,0v-4.4h14.749v4.4a.277.277,0,0,0,.554,0v-4.4h2.842a.277.277,0,1,0,0-.554Zm-18.146,0v-8.229h14.749v8.229Z" transform="translate(-782.305 -314.335)"/><path class="g" d="M968.083,808.908V943.9h89.393V808.908Zm25.773,27.15H981.488v-16.32h12.368Zm37.9,33.229h-12.369v-16.32h12.369Zm0-33.492h-12.369v-16.32h12.369Z" transform="translate(-739.157 -401.1)"/><path class="c" d="M594.465,1007.331H579.214v-7.295h14.921a.277.277,0,1,0,0-.554H579.214V987.176a.277.277,0,0,0-.554,0v12.307H566.3V987.176a.277.277,0,0,0-.554,0v12.307h-4.567a.277.277,0,1,0,0,.554h4.567v7.295h-4.237a.277.277,0,0,0,0,.554h4.237v4.458a.277.277,0,1,0,.554,0v-4.458H578.66v4.458a.277.277,0,1,0,.554,0v-4.458h15.252a.277.277,0,1,0,0-.554Zm-28.163,0v-7.295H578.66v7.295Z" transform="translate(-407.146 -546.233)"/><path class="e" d="M531.219,1124.985V1229.7c-3.953.607-9.319,1.3-15.649,1.78l-.059.005H515.5a203.864,203.864,0,0,1-27.356.123c-1.81-.11-3.508-.324-5.354-.5a148.342,148.342,0,0,1-22.064-4.293V1124.985Z" transform="translate(-325.456 -658.828)"/><path class="c" d="M110.426,936.36l-.494-.408V837.777a.277.277,0,1,0-.554,0v50.876H68.613a.277.277,0,0,0,0,.554h40.272L81.109,912.147,62.036,896.395a.277.277,0,1,0-.353.427l18.991,15.685-14.565,12.03a.277.277,0,0,0,.176.49.274.274,0,0,0,.176-.063l14.647-12.1,27.777,22.941H67.973a.277.277,0,0,0,0,.554h41.4v44.448a.277.277,0,1,0,.554,0V936.36ZM81.544,912.507l27.834-22.989V935.5Z" transform="translate(0 -424.414)"/><rect class="f" width="11.999" height="16.356" transform="translate(94.646 447.883)"/><rect class="f" width="11.999" height="16.356" transform="translate(75.294 447.883)"/><g transform="translate(334.581 434.259)"><path class="h" d="M1614.48,1479.2l-2.332,2.909a14.75,14.75,0,0,1-1.972,2.533l.692,2.208-3.91,1.226-.5-1.608a54.649,54.649,0,0,1-12.2,7.033h0l-.017.007a47.012,47.012,0,0,1-10.724,3.018q-5.771.889-11.181,1.481c.057,1.015.09,2.06.054,2.808a.27.27,0,0,1-.024.1c.624.932.967,1.444.967,1.444s2.147,4.663-2.069,7.626c-.244.172-.478.327-.707.469.129-3.891.284-7.595.465-11.021.009-.162.017-.323.026-.482.015-.273.03-.543.044-.811.349-6.214.794-11.447,1.357-15.156.192-1.27.4-2.361.62-3.253.421-1.693.823-3.223,1.205-4.608v0c.013-.044.024-.087.037-.131,1.715-6.19,3.037-9.432,3.962-11.126,1.065-1.959,1.6-1.857,1.6-1.857l6.784.066,13.882.133,5.474.054,2.075.02s1.176.705,2.651,3.544a33.062,33.062,0,0,1,2.291,5.887c.408,1.383.809,2.959,1.185,4.755.057.273.114.548.17.833v0c.061.3.12.617.179.936.029.157.057.316.087.476.015.083.03.17.042.258C1614.619,1479.057,1614.55,1479.131,1614.48,1479.2Z" transform="translate(-1564.987 -1367.9)"/><path class="i" d="M1636.762,986.481s-4.458-.4-9.439,5.852-4.07,23.977,11.868,21.912c4.664-.6-5.833,27.825-5.833,27.825l33.038,3.689s3.681-4.434,2.478-7.84c-.811-2.295-7.842-6.947-8.225-9.729-.261-1.9,2.32-6.82,1.081-9.078-2.26-4.119-17.226-3.041-13.742-5.978C1655.949,1006.423,1652.975,985.135,1636.762,986.481Z" transform="translate(-1609.095 -980.101)"/><path class="j" d="M1635.544,1119.839s-.561,13.776-.034,14.5c1.8,2.48,7.133,4.663,8.351,4.991s-19.905,8.385-19.905,8.385l-10.141-4.969,3.909-3.527a22.645,22.645,0,0,0,4.73-3.144c1.444-1.492,2.146-15.507,2.146-15.507Z" transform="translate(-1600.265 -1088.89)"/><path class="k" d="M1621.78,1146.706l-10.616-5.2,4.24-3.826.033-.017a22.513,22.513,0,0,0,4.655-3.089c1.006-1.04,1.789-9.736,2.069-15.328l.012-.246,11.5-.766-.013.308c-.211,5.188-.419,13.667-.08,14.338,1.683,2.317,6.8,4.5,8.192,4.876a.324.324,0,0,1,.255.3c.016.317.032.645-10.138,4.71-4.938,1.974-9.946,3.885-10,3.9Zm-9.638-5.339,9.665,4.736c6.816-2.6,17.419-6.8,19.4-7.946-1.733-.59-6.38-2.617-8.084-4.965-.525-.723-.173-10.8-.031-14.366l-10.392.692c-.119,2.268-.8,13.982-2.211,15.439a22.256,22.256,0,0,1-4.771,3.182Z" transform="translate(-1598.103 -1087.579)"/><path class="j" d="M1656.036,1051.791c1.618-1.074,4.459-3.246,4.535-5.367s-2.342-1.872-3.08-1.537c-.492.223.01-10.382.01-10.382l-16.409-.878s-2.432,9.118-1.845,14.972c.59,5.879,3.285,7.4,7.563,7.591a10,10,0,0,0,5.1-1.036Z" transform="translate(-1620.927 -1018.593)"/><path class="k" d="M1646.132,1055.205c-.183,0-.367,0-.552-.012-2.466-.11-4.111-.644-5.336-1.732-1.387-1.232-2.2-3.23-2.49-6.108-.585-5.838,1.828-14.98,1.852-15.072l.058-.217,16.909.905-.013.275a99.908,99.908,0,0,0-.148,10.024,3.11,3.11,0,0,1,2.464.216,1.8,1.8,0,0,1,.754,1.677c-.08,2.225-2.953,4.456-4.659,5.588a.277.277,0,0,1-.306-.461c1.617-1.073,4.341-3.168,4.412-5.146a1.264,1.264,0,0,0-.509-1.2,2.674,2.674,0,0,0-2.18-.078.31.31,0,0,1-.3-.026c-.185-.126-.4-.268-.261-5.536.052-2.045.14-4.087.172-4.811l-15.909-.852c-.36,1.416-2.306,9.416-1.78,14.656.589,5.869,3.229,7.16,7.3,7.343a9.842,9.842,0,0,0,4.963-1.007.277.277,0,0,1,.252.493A10.2,10.2,0,0,1,1646.132,1055.205Z" transform="translate(-1619.71 -1017.319)"/><path class="e" d="M1603.464,1232.373c.009.046-.135.19-.4.408l0,0c-.375.306-.99.764-1.75,1.311-2.68,1.923-7.176,4.949-9.4,6.439l-1.331.886-3.275-4.368.4,5.259.663,8.8.447,5.928.423,5.6.441,5.858.15,1.977.061.814-2.272,2.847-.57.013-2.177.048-4.264.094-.906.02-30.569.678-1.22.026-2.915.065-.227.005.133-1.778v-.005l.613-8.241,1.789-24.043.113-1.514v0l.09-1.211.006-.074-.384.107-4.034,1.117-2.63.729s.426-2.437,1.333-5.959c.257-1,.554-2.091.892-3.24a63.791,63.791,0,0,1,5.78-14.08,22.357,22.357,0,0,1,5.069-6.157,10.217,10.217,0,0,1,4.521-2.154.79.79,0,0,1,.24,0,3.413,3.413,0,0,1,1.217.5c.079.046.159.1.24.148.111.07.225.146.342.223a43.238,43.238,0,0,1,4.816,4.152s1.342-.679,3.177-1.6c1.15-.58,2.494-1.255,3.823-1.92,1.475-.737,2.933-1.46,4.091-2.027.7-.342,1.29-.626,1.709-.82a4.3,4.3,0,0,1,.674-.282,14.615,14.615,0,0,1,2.974.87c.69.275,1.36.587,1.986.91.761.391,1.455.8,2.036,1.167a46.985,46.985,0,0,1,13.954,13.251A26.33,26.33,0,0,1,1603.464,1232.373Z" transform="translate(-1540.452 -1159.919)"/><path class="l" d="M1625.9,1356.416l-.57.013-2.177.048-4.264.094-.906.02-30.569.676c.011-.136.022-.277.033-.417l.609-7.549,2.1-26,.991-12.276v-.007l.24-2.974.436,0,.5,0,2.747-.018,19.215-.12.733,0,2.743-.018,2.477-.015s2.036,12.819,5.749,16.732a4.522,4.522,0,0,0,.748.648l.535,10.129.2,3.829.284,5.368.373,7.044v0l.055,1.062.044.833Z" transform="translate(-1578.735 -1242.202)"/><path class="h" d="M1750.253,1528.183l-3.91,1.226-.5-1.608-.2-.624-1.122-3.579-.811-2.588-2.221-7.083,1.955-.613,1.955-.613.956,3.052,2.429,7.751.473,1.5.3.967Z" transform="translate(-1704.371 -1409.228)"/><path class="h" d="M1677.12,1432.432l-17.716,5.555a2.461,2.461,0,0,1-3.085-1.612l-.489-1.559a2.461,2.461,0,0,1,1.612-3.085l17.716-5.555a2.461,2.461,0,0,1,3.085,1.612l.489,1.559A2.462,2.462,0,0,1,1677.12,1432.432Z" transform="translate(-1634.432 -1338.584)"/><path class="j" d="M1657.443,1437.152a2.743,2.743,0,0,1-2.61-1.921l-.489-1.558a2.742,2.742,0,0,1,1.794-3.432l17.717-5.555a2.739,2.739,0,0,1,3.432,1.794l.489,1.558a2.738,2.738,0,0,1-1.794,3.432l-17.716,5.555A2.748,2.748,0,0,1,1657.443,1437.152Zm17.23-12.038a2.175,2.175,0,0,0-.652.1l-17.716,5.555a2.184,2.184,0,0,0-1.431,2.738l.489,1.559a2.184,2.184,0,0,0,2.738,1.431l17.716-5.555a2.187,2.187,0,0,0,1.431-2.738l-.489-1.559A2.189,2.189,0,0,0,1674.672,1425.114Z" transform="translate(-1633.21 -1337.358)"/><path class="h" d="M1745.162,1447.9l-1.241-3.959,11.73-3.678-2.255-7.194-2.9.91-.166-.529,3.431-1.076,2.587,8.25-11.73,3.678,1.076,3.431Z" transform="translate(-1706.353 -1343.729)"/><path class="j" d="M1777.713,1360.233c-1.052,3.572-7.6,10.074-12.272,14.56l0,.005c-1.76,1.689-3.255,3.092-4.089,3.945-.042.044-.085.085-.124.126l-.076.081c-.125.131-.229.244-.31.34-.181.212-.57,1.023-1.139,2.038-.227.4-.482.838-.762,1.283a14.76,14.76,0,0,1-1.972,2.533,6.124,6.124,0,0,1-2.276,1.516,1.6,1.6,0,0,1-1.054.011,2.015,2.015,0,0,1-.587-.325,7.993,7.993,0,0,1-2.029-3.559c-.161-.478-.3-.947-.414-1.364a1.243,1.243,0,0,1,.51-1.244,27.182,27.182,0,0,1,3.574-2.217c-.34-1.006-.768-2.47-.925-3.013a.133.133,0,0,1,0-.028.154.154,0,0,1,.192-.166,7.138,7.138,0,0,1,2.653,1.96c.827-1.054,1.962-2.666,3.208-4.5.244-.36.493-.727.744-1.1l.238-.354c2.06-3.081,4.266-6.507,5.795-8.9.777-1.218-1.573-7.986-3.356-12.848l-.022-.061c-1.03-2.8-1.864-4.955-1.792-5.021,0,0,5.326-5.608,9.43-3.447a5.4,5.4,0,0,1,1.741,2.014c.015.024.028.05.044.076a50.843,50.843,0,0,1,4.318,11.926C1777.61,1357.22,1777.938,1359.469,1777.713,1360.233Z" transform="translate(-1711.776 -1268.396)"/><path class="h" d="M1752.909,1385.786a1.831,1.831,0,0,1-.591-.1,2.287,2.287,0,0,1-.667-.368,7.948,7.948,0,0,1-2.122-3.689c-.144-.428-.284-.892-.418-1.38a1.485,1.485,0,0,1,.587-1.52,12.5,12.5,0,0,1,2.289-1.484c.376-.211.763-.427,1.141-.653-.339-1.027-.738-2.4-.858-2.814l-.006-.023a.491.491,0,0,1-.008-.06.428.428,0,0,1,.141-.359.436.436,0,0,1,.391-.1,6.981,6.981,0,0,1,2.573,1.8c.73-.952,1.714-2.338,3-4.222l.123-.181q.306-.452.62-.92.116-.174.239-.356c2.072-3.1,4.293-6.549,5.79-8.9.522-.819-.615-5.059-3.382-12.6l-.023-.062c-.262-.714-.512-1.386-.738-1.993-1.172-3.151-1.172-3.151-.982-3.327.211-.222,5.507-5.721,9.747-3.488a5.516,5.516,0,0,1,1.85,2.118l.022.038.017.03a51.6,51.6,0,0,1,4.354,12.01c.337,1.4,1.085,4.767.757,5.881h0c-1.028,3.491-7.111,9.655-12.31,14.646v0l-.044.042c-.519.5-1.021.977-1.488,1.423-1.077,1.028-2.007,1.915-2.589,2.51l-.065.066-.129.135c-.129.135-.227.242-.3.331a8.68,8.68,0,0,0-.528.925c-.169.316-.359.674-.581,1.069-.27.478-.521.9-.77,1.3a14.8,14.8,0,0,1-2.01,2.582,6.387,6.387,0,0,1-2.383,1.581A2,2,0,0,1,1752.909,1385.786Zm-.043-11.94c.172.589.552,1.876.858,2.782l.071.209-.188.115c-.446.273-.9.53-1.349.778a12.219,12.219,0,0,0-2.181,1.405c-.5.465-.485.776-.432.968.131.478.269.932.409,1.35a7.472,7.472,0,0,0,1.937,3.429,1.736,1.736,0,0,0,.5.28,1.322,1.322,0,0,0,.878-.011,5.84,5.84,0,0,0,2.17-1.45,14.226,14.226,0,0,0,1.933-2.485c.243-.385.49-.8.755-1.271.218-.39.408-.745.575-1.058a7.618,7.618,0,0,1,.594-1.023c.082-.1.188-.213.321-.352l.074-.079.066-.067.059-.06c.591-.6,1.524-1.494,2.6-2.525.457-.436.946-.9,1.458-1.395v0l.036-.036c5.157-4.95,11.2-11.064,12.2-14.438h0c.2-.673-.094-2.817-.764-5.594a51.062,51.062,0,0,0-4.288-11.85c-.006-.01-.017-.028-.028-.046l-.014-.024a5.136,5.136,0,0,0-1.634-1.915c-3.584-1.888-8.29,2.584-9.007,3.3.1.371.55,1.571,1.02,2.833.226.607.476,1.28.739,2l.023.062c2.989,8.149,3.984,12.065,3.329,13.092-1.5,2.35-3.722,5.8-5.8,8.909-.082.121-.161.238-.238.354q-.315.469-.622.922l-.123.181c-1.411,2.074-2.464,3.549-3.22,4.513l-.209.267-.22-.259A7.693,7.693,0,0,0,1752.865,1373.845Zm-.2-.066h0Zm7.747-30.923-.017.017Z" transform="translate(-1710.547 -1267.151)"/><path class="j" d="M1560.168,1407.612c-.233,3.046-.388,5.079-.4,5.35-.072,1.3,2.922,5.123,2.706,6.013s-3.29-2.429-3.29-2.429a18.655,18.655,0,0,0-.541,3.489c.059.631.138,1.612.194,2.623s.091,2.06.054,2.808a.266.266,0,0,1-.024.1.3.3,0,0,1-.535.024c-.216-.4-.5-.921-.809-1.506-.2-.384-.417-.8-.632-1.218-.16-.316-.323-.637-.478-.954v0a18.2,18.2,0,0,1-1.347-3.232c-.222-1.058,1.231-6.057,1.231-6.057l-.262-4.92-.094-1.772-.3-5.691-.593-11.122v0l-.559-10.482-.122-2.28-.144-2.712-.085-1.577L1554,1369.6l3.844.234,1,.059,4.237.259s-.1,1.316-.273,3.489c-.439,5.64-1.327,17.046-2.031,26.135v0c-.214,2.76-.412,5.309-.572,7.416-.011.14-.022.281-.033.417Z" transform="translate(-1551.492 -1292.545)"/><path class="h" d="M1557.294,1424.722a.569.569,0,0,1-.5-.3c-.216-.4-.5-.922-.809-1.508-.2-.385-.418-.8-.633-1.222-.161-.317-.324-.64-.48-.958l-.028-.059a17.3,17.3,0,0,1-1.342-3.24c-.223-1.067,1.023-5.45,1.223-6.145L1552.413,1368l9.668.588-.3,3.77c-.439,5.638-1.327,17.037-2.03,26.124v.013c-.214,2.76-.412,5.309-.572,7.415l-.033.419c-.216,2.832-.387,5.069-.4,5.344a9.664,9.664,0,0,0,1.434,3.115c.866,1.493,1.39,2.434,1.265,2.948a.454.454,0,0,1-.328.347c-.611.156-2.066-1.216-3.076-2.273a14.418,14.418,0,0,0-.42,2.895c.036.389.128,1.426.195,2.633s.086,2.169.054,2.836a.541.541,0,0,1-.05.208.567.567,0,0,1-.494.339Zm-1.9-4.177c.146.3.3.6.448.893.214.419.427.831.629,1.214.31.584.592,1.106.807,1.5.006.011.007.012.017.012a.026.026,0,0,0,.017-.007,26.873,26.873,0,0,0-.049-2.792c-.065-1.2-.156-2.227-.193-2.613a18.426,18.426,0,0,1,.547-3.579l.121-.5.352.381a12.832,12.832,0,0,0,2.822,2.479,10.512,10.512,0,0,0-1.211-2.467c-.8-1.374-1.549-2.672-1.508-3.423.015-.267.155-2.11.4-5.345v-.013l.033-.417c.16-2.1.358-4.649.571-7.4v-.013c.7-9.088,1.592-20.495,2.031-26.134l.251-3.209-8.486-.516,2.281,42.759-.013.045c-.576,1.983-1.378,5.2-1.226,5.923a17.531,17.531,0,0,0,1.325,3.167Z" transform="translate(-1550.198 -1291.24)"/><path class="k" d="M1656.415,1084.756a.572.572,0,0,1-.073,0,.554.554,0,0,1-.477-.622l.07-.533a.554.554,0,0,1,1.1.145l-.071.533A.554.554,0,0,1,1656.415,1084.756Z" transform="translate(-1634.549 -1058.946)"/><path class="k" d="M1695.93,1086.485a.553.553,0,0,1-.55-.626l.07-.533a.554.554,0,0,1,1.1.145l-.07.533A.554.554,0,0,1,1695.93,1086.485Z" transform="translate(-1666.769 -1060.356)"/><path class="k" d="M1692.694,1075.866a.276.276,0,0,1-.146-.042c-1.323-.821-3.769-.261-3.793-.256a.277.277,0,0,1-.127-.539c.109-.026,2.692-.619,4.212.324a.277.277,0,0,1-.146.512Z" transform="translate(-1661.094 -1052.183)"/><path class="k" d="M1663.665,1091.319a.275.275,0,0,1-.069-.009l-.072-.016c-1.024-.226-1.515-.663-1.459-1.3a1.9,1.9,0,0,1,.65-1.039,3.826,3.826,0,0,0,.892-1.275.277.277,0,0,1,.519.193,4.338,4.338,0,0,1-1.008,1.461c-.26.277-.485.516-.5.707-.037.423.569.606,1.028.708l.089.021a.277.277,0,0,1-.068.545Z" transform="translate(-1639.604 -1062.524)"/><path class="k" d="M1653.223,1073.941a.277.277,0,0,1-.089-.015,5.159,5.159,0,0,0-3.143-.071.277.277,0,1,1-.191-.52,5.659,5.659,0,0,1,3.511.066.277.277,0,0,1-.089.539Z" transform="translate(-1629.46 -1050.773)"/><path class="k" d="M1657.892,1116.767c-.268.3,1.114,1.494,2.243,1.495,2.839,0,3.717-2.016,3.078-1.7a6.771,6.771,0,0,1-3.078.658C1658.334,1117.089,1658.2,1116.431,1657.892,1116.767Z" transform="translate(-1636.178 -1086.192)"/><path class="l" d="M1678.814,1589.207a.277.277,0,0,1-.275-.245l-.7-5.952-3.427-2.452a.277.277,0,0,1,.322-.45l3.627,2.594.725,6.195a.277.277,0,0,1-.243.307Z" transform="translate(-1649.584 -1464.15)"/><path class="k" d="M1642.072,1031.607s14.948,4.276,17.578,11.614a4.144,4.144,0,0,1,1.612-.3,1.991,1.991,0,0,1,1.151.406l-.458-12.177Z" transform="translate(-1623.306 -1016.574)"/><path class="e" d="M1544.049,1317.853s-4.129,10.994-3.584,13.593H1552l.821-12.283Z" transform="translate(-1540.416 -1250.35)"/><path class="e" d="M1794.22,1298.014l3.792,8.987,11.967-8.235-7.149-10.892Z" transform="translate(-1747.367 -1225.905)"/><path class="h" d="M1653.142,967.423v2.882H1623.4v-2.882a14.871,14.871,0,0,1,29.742,0Z" transform="translate(-1608.081 -952.541)"/><path class="j" d="M1655.427,954.518s-11.809,4.044-15.218,15.622c-.341,1.159-5.075,1.182-5.354-.369-1.477-8.222,5.14-15.589,5.14-15.589a14.885,14.885,0,0,1,15.431.336Z" transform="translate(-1617.246 -952.19)"/><rect class="m" width="33.646" height="2.75" rx="1.375" transform="translate(11.767 16.892)"/><path class="m" d="M1618.448,1212.089a45.919,45.919,0,0,0-4.634,18.876h2.706s.911-14.582,4.273-18.766Z" transform="translate(-1600.265 -1164.111)"/><path class="m" d="M1741.541,1209.78a47.409,47.409,0,0,0-4.851,19.3h2.706s.816-14.161,4.177-18.345Z" transform="translate(-1700.457 -1162.228)"/><path class="h" d="M1640.855,1349.142h0a7.911,7.911,0,0,1-7.912-7.911v-1.7a.819.819,0,0,1,.82-.819h14.184a.819.819,0,0,1,.819.819v1.7A7.911,7.911,0,0,1,1640.855,1349.142Z" transform="translate(-1615.862 -1267.359)"/><path class="j" d="M1639.632,1348.2a8.2,8.2,0,0,1-8.189-8.188v-1.7a1.1,1.1,0,0,1,1.1-1.1h14.184a1.1,1.1,0,0,1,1.1,1.1v1.7A8.2,8.2,0,0,1,1639.632,1348.2Zm-7.092-10.429a.543.543,0,0,0-.543.542v1.7a7.634,7.634,0,1,0,15.269,0v-1.7a.543.543,0,0,0-.542-.542Z" transform="translate(-1614.639 -1266.136)"/></g><g transform="translate(263.047 412.139)"><path class="h" d="M1264.52,1464.54l-.048,4.58v0l-.142,13.223-.03,2.786v0l-.031,3.059-.074,6.884-.02,1.948-.046,4.218-.018,1.868v0l-.026,2.383-1.224-1.458a7.337,7.337,0,0,1-.724.367c-.511.227-2.365-1.266-3.989-2.906-8.839.277-16.96.068-24.562-.354h0c-8.165-.452-15.734-1.15-22.954-1.754l-.788-.067.1-1.045.443-4.848v0l1.362-14.931.448-4.922.081-.015.354-.061,16.018-2.765h0l4.779-.825.183-.031.522-.09,13.517-2.335,5.856-1.012h0l1.1-.188,5.989-1.036.327-.055.6-.1,2.378-.412Z" transform="translate(-1199.332 -1347.839)"/><path class="j" d="M1194.436,1352.24s-.015.179-.041.517v0c-.214,2.763-1.257,16.118-2.269,29.173-.122,1.54-.24,3.075-.358,4.589v.011c-.011.133-.02.266-.033.4-.434,5.61-.842,10.892-1.152,14.931v0c-.155,2.01-.284,3.714-.382,5-.026.354-.052.677-.072.964l-.788-.066q-2.342-.194-4.641-.371l.087-1.7.951-18.752,1.222-24.071v0l.116-2.291.4-7.877,3.843-.247.484-.031.041,0,.116-.009Z" transform="translate(-1178.833 -1256.27)"/><path class="k" d="M1189.1,1406.809l-1.068-.09c-1.553-.129-3.114-.254-4.639-.371l-.269-.021,2.8-55.21,7.525-.485-.026.319s-.014.175-.04.505v.013c-.07.912-.231,2.978-.452,5.807-.447,5.74-1.139,14.62-1.817,23.367q-.122,1.545-.241,3.079l-.129,1.66c-.007.089-.014.177-.022.264-.433,5.6-.841,10.877-1.151,14.914v.013c-.114,1.479-.214,2.791-.3,3.892l-.12,1.575c-.013.173-.026.337-.036.49Zm-5.4-.992c1.44.111,2.91.229,4.374.35l.51.043q.008-.1.016-.213l.119-1.575c.084-1.1.184-2.408.3-3.882v-.012c.31-4.039.718-9.321,1.152-14.931.009-.09.015-.174.022-.259l.129-1.659q.119-1.532.241-3.079c.677-8.746,1.37-17.626,1.817-23.366.219-2.818.38-4.88.451-5.8v-.011c.006-.074.011-.14.016-.2l-6.394.412Z" transform="translate(-1177.551 -1254.959)"/><path class="j" d="M1306.537,1030.952s1.284,13.486.205,14.977-7.306,4.24-7.306,4.24l10.441,30.7,22.3-2.155,1.446-22.824s-10.177-8.29-10.791-9.993c-.849-2.356-.852-14.943-.852-14.943Z" transform="translate(-1272.388 -994.293)"/><path class="k" d="M1308.167,1079.94l-.071-.208-10.522-30.938.232-.1c.062-.027,6.171-2.735,7.194-4.149.747-1.032.256-9.41-.257-14.789a.277.277,0,1,1,.551-.053c.132,1.391,1.262,13.634.154,15.166-1,1.385-6.025,3.7-7.187,4.227l10.289,30.252,21.843-2.111,1.422-22.446c-1.461-1.193-10.162-8.348-10.766-10.023-.856-2.374-.868-14.521-.868-15.037a.277.277,0,0,1,.554,0c0,.125.012,12.566.835,14.85.482,1.337,7.891,7.579,10.705,9.872l.11.09-1.47,23.2Z" transform="translate(-1270.87 -993.07)"/><path class="j" d="M1242.153,1111.076c-6.739,2.459-5.111,38.449-5.111,38.449-1.1,4.232-3.691,26.892-3.691,26.892l47.232,9.414,5.57-28.282s3.487-47.615-15.019-50.4c-1.776-.267-7.2,2.269-13,1.709-2.515-.243-3.8,2.759-5.048-1.647C1253.084,1107.207,1243.619,1110.541,1242.153,1111.076Z" transform="translate(-1218.503 -1056.404)"/><path class="k" d="M1279.56,1185.015l-.247-.049-47.459-9.46.026-.23c.106-.923,2.592-22.6,3.688-26.889-.087-1.946-1.506-36.183,5.278-38.659,1.451-.529,10.839-3.837,10.933-3.87l.253-.089.073.257c.355,1.25.732,1.958,1.155,2.165.369.18.821,0,1.393-.232a4.721,4.721,0,0,1,2.282-.467,28.413,28.413,0,0,0,9.575-1.137,11.12,11.12,0,0,1,3.44-.57c4.309.649,7.79,3.743,10.344,9.194,2.025,4.321,3.477,10.132,4.317,17.273a146.184,146.184,0,0,1,.571,24.2l0,.03Zm-47.154-9.912,46.758,9.32,5.518-28.019a145.587,145.587,0,0,0-.57-24.1c-.834-7.085-2.272-12.844-4.274-17.115-2.479-5.288-5.83-8.285-9.962-8.908a11.373,11.373,0,0,0-3.244.56,28.82,28.82,0,0,1-9.745,1.15,4.262,4.262,0,0,0-2.045.433,2.193,2.193,0,0,1-1.8.218c-.538-.264-.956-.953-1.342-2.222-1.509.532-9.363,3.3-10.678,3.78l-.086-.236.086.236c-2.652.968-4.353,7.856-4.917,19.919-.43,9.187-.032,18.192-.028,18.282l0,.038-.01.037C1235.041,1152.415,1232.683,1172.7,1232.407,1175.1Z" transform="translate(-1217.282 -1055.292)"/><path class="h" d="M1187.539,1158.06l-4.485-46.212c-3.089,0-15.289,5.981-18.175,8.534-1.058.936-12.052,86.819-11.961,87.856,0,0,10.849,2.685,12.494,2.769.809.042.136-46.221.728-56.986l-2.417,27.135-2.161,24.689,24.292.019,1.106-21.239Z" transform="translate(-1152.917 -1060.255)"/><path class="h" d="M1355.619,1102.387l-16.9,46.527c-.045,2.888.2,4.167-.292,16.461-.259,6.52.531,34.469.532,33.473,0-.4,32.714,1.046,32.714,1.046l1.391-34.2s10.949-5.608,10.949-21.487c0-17.793-1.312-23.838-4.51-32.766C1379.043,1110.149,1361.909,1102.387,1355.619,1102.387Z" transform="translate(-1304.141 -1052.541)"/><path class="i" d="M1331.269,889.544c-2.807-.061-9.623-.295-10.258,4.659a129.245,129.245,0,0,0-.626,16.935,3.1,3.1,0,0,0,2.7,3.016l17.059,2.189a3.1,3.1,0,0,0,3.405-2.338c1.27-5.161,3.863-16.1,3.456-17.852C1345.625,890.192,1335.713,889.64,1331.269,889.544Z" transform="translate(-1289.439 -878.973)"/><path class="j" d="M1340,934.759c1.044-.839,1.9-4.578,2.558-8.884a.362.362,0,0,1,.213-.277,5.071,5.071,0,0,0,3.238-3.892c.2-1.862-1.194-1.644-2.325-1.182a.287.287,0,0,1-.388-.31c.585-5.219.884-9.822.884-9.822l-20.271-2.6s-.556,4.65-1.03,9.883c-.021.235-.764,12.768-.421,13.954a3.5,3.5,0,0,0,1.259,1.722s1.164,1.231,8.532,2.176Z" transform="translate(-1291.089 -893.868)"/><path class="k" d="M1331.033,934.432l-.036,0c-6.969-.894-8.487-2.068-8.677-2.24a3.756,3.756,0,0,1-1.345-1.855c-.369-1.278.4-13.938.411-14.056.469-5.177,1.025-9.844,1.031-9.891l.033-.277,20.807,2.67-.017.26c0,.046-.307,4.669-.886,9.835,0,.019.008.024.008.024,1.02-.418,1.773-.452,2.24-.1a1.624,1.624,0,0,1,.464,1.568,5.366,5.366,0,0,1-3.4,4.117.086.086,0,0,0-.049.065c-.813,5.31-1.682,8.273-2.658,9.057a.277.277,0,0,1-.347-.432c.585-.47,1.487-2.363,2.458-8.71a.635.635,0,0,1,.376-.49,4.83,4.83,0,0,0,3.072-3.667c.058-.542-.025-.9-.246-1.067-.291-.219-.894-.158-1.7.17a.549.549,0,0,1-.544-.071.573.573,0,0,1-.224-.526c.5-4.456.793-8.506.866-9.55l-19.735-2.532c-.126,1.078-.594,5.149-1,9.6-.046.52-.75,12.747-.431,13.853a3.226,3.226,0,0,0,1.165,1.582l.029.026c.007.007,1.3,1.186,8.366,2.092a.277.277,0,0,1-.035.552Z" transform="translate(-1289.87 -892.497)"/><path class="k" d="M1389.892,974.392h-.036a.461.461,0,0,1-.424-.5l.033-.421a.462.462,0,0,1,.92.072l-.033.421A.462.462,0,0,1,1389.892,974.392Z" transform="translate(-1345.769 -947.078)"/><path class="k" d="M1341.649,969.374a.438.438,0,0,1-.055,0,.461.461,0,0,1-.4-.513l.058-.495a.462.462,0,0,1,.917.109l-.058.495A.462.462,0,0,1,1341.649,969.374Z" transform="translate(-1306.432 -942.926)"/><path class="k" d="M1388.749,958.8a.275.275,0,0,1-.135-.035,4.632,4.632,0,0,0-3.3-.376.277.277,0,0,1-.164-.529,5.143,5.143,0,0,1,3.735.422.277.277,0,0,1-.135.519Z" transform="translate(-1342.118 -934.551)"/><path class="k" d="M1338.739,963.194a.277.277,0,0,1-.092-.016c-.283-.1-1.695-.639-1.74-1.462-.035-.635.053-.8,1.13-2.772.235-.431.519-.952.862-1.588a5.912,5.912,0,0,0,.516-2.131c-.007-.09-.122-.251-.427-.435a5.529,5.529,0,0,0-4.256-.392.277.277,0,1,1-.221-.508,6.06,6.06,0,0,1,4.764.426,1.206,1.206,0,0,1,.692.869,6.414,6.414,0,0,1-.566,2.4l-.009.019c-.346.641-.632,1.166-.869,1.6-1.059,1.943-1.089,2.012-1.064,2.477.018.337.829.779,1.372.971a.277.277,0,0,1-.092.538Z" transform="translate(-1300.852 -931.202)"/><path class="k" d="M1412.925,1533.55a.274.274,0,0,1-.167-.056l-13.039-9.9a.277.277,0,1,1,.335-.441l13.039,9.9a.277.277,0,0,1-.168.5Z" transform="translate(-1354.069 -1395.581)"/><path class="n" d="M1221.885,1533.228a.277.277,0,0,1-.125-.524l14.028-7.121a.277.277,0,0,1,.25.494l-14.028,7.121A.276.276,0,0,1,1221.885,1533.228Z" transform="translate(-1208.927 -1397.589)"/><path class="j" d="M1276.606,1104.417l-9.421,10.408,7.636,3.068-4.39,11.522,10.093,21.2a.078.078,0,0,0,.147-.041Z" transform="translate(-1246.091 -1054.196)"/><path class="e" d="M1278.509,1148.035a.354.354,0,0,1-.32-.2l-10.144-21.3,4.335-11.378-7.752-3.115,10.113-11.172,4.12,46.784a.357.357,0,0,1-.354.387Zm-.2-.339v0Zm-9.664-21.191,9.567,20.091-3.913-44.42-8.729,9.643,7.519,3.021Z" transform="translate(-1244.006 -1051.299)"/><path class="j" d="M1358.611,1102.387l9.1,13.8-10.271.893,2.306,12.22-17.428,19.418a.157.157,0,0,1-.263-.161Z" transform="translate(-1307.134 -1052.541)"/><path class="e" d="M1340.984,1146.336a.435.435,0,0,1-.228-.065.428.428,0,0,1-.179-.525l16.736-46.689,9.666,14.653-10.43.907,2.275,12.054-17.52,19.519A.43.43,0,0,1,1340.984,1146.336Zm.114-.4v0Zm16.363-45.649-16.158,45.078,16.927-18.859-2.338-12.386,10.113-.88Z" transform="translate(-1305.91 -1049.826)"/><path class="j" d="M1354.659,1452.1a1.157,1.157,0,1,0,1.156-1.156A1.157,1.157,0,0,0,1354.659,1452.1Z" transform="translate(-1317.417 -1336.75)"/><path class="k" d="M1354.593,1452.307a1.433,1.433,0,1,1,1.434-1.434A1.435,1.435,0,0,1,1354.593,1452.307Zm0-2.313a.88.88,0,1,0,.88.879A.881.881,0,0,0,1354.593,1449.994Z" transform="translate(-1316.194 -1335.526)"/><path class="j" d="M1359.491,1404.554h-.015l-22.656-1.2-.213-49.478a.277.277,0,0,1,.276-.278h0a.277.277,0,0,1,.277.276l.211,48.955,22.134,1.171a.277.277,0,0,1-.015.553Z" transform="translate(-1302.698 -1257.378)"/><path class="j" d="M1221.062,1350H1198.1l5.378-61.448a.277.277,0,0,1,.552.048l-5.326,60.845h22.353a.277.277,0,0,1,0,.554Z" transform="translate(-1189.762 -1204.133)"/><path class="j" d="M1384.382,1095.826l-5.474-4.267-11.321,4.6,3.63,4.332Z" transform="translate(-1327.958 -1043.712)"/><path class="j" d="M1299.857,1099.439l3.819-4.046,8.685,3.895-3.274,3.994Z" transform="translate(-1272.731 -1046.838)"/><path class="e" d="M1327.538,1094.45l-6.026-4.7-11.362,4.619-8.76-3.929-4.25,4.5,9.819,4.089,3.189-3.89,3.535,4.218Zm-20.756,3.881-8.64-3.6,3.387-3.588,8.148,3.654Zm14.637-7.911,4.922,3.836-12.473,4.422-3.243-3.87Z" transform="translate(-1270.515 -1042.239)"/><path class="h" d="M1343.6,1120.822l-3.63-4.332-3.609,4.332,1.578,1.859-4.22,23.1,1.26,15.5,6.139-17.539-.151-20.7Z" transform="translate(-1300.344 -1064.041)"/><path class="j" d="M1326.459,1410.964c-.244.172-.478.327-.707.469-4.052,2.526-5.823.75-5.823.75l-6.522-7.776-1.224-1.458-2.206-2.629-.5-.6-2.232-2.66,0,0-2.895-3.45-.718-.859-12.869-15.339-5.25-6.26-2.057-2.45-.532-.635-.153-.183-12.033-14.344s-2.091-2.819,3.22-6.408l.052-.033.024-.017-1.553-2.278s5.256-3.448,9.426-4.122h0a8.093,8.093,0,0,1,.984-.105c.041,0,.081-.006.12-.006.114-.005.225-.005.332,0a5.2,5.2,0,0,1,.794.074c.066.011.129.024.194.039a3.3,3.3,0,0,1,1.12.46c.048.031.094.065.14.1a65.3,65.3,0,0,1,5.287,6.921l0,0c3.173,4.449,7.434,10.6,11.946,17.188h0q.545.8,1.1,1.606c1.549,2.263,3.118,4.563,4.676,6.854.212.316.426.629.639.941l.884,1.3,1.091,1.606q.858,1.263,1.7,2.507l0,0c.246.364.493.725.737,1.086.986,1.457,1.951,2.883,2.885,4.266.03.042.057.085.085.126q.5.736.982,1.455c2.969,4.394,5.577,8.27,7.5,11.133v0q.327.49.63.938c.175.262.345.513.506.753.522.777.966,1.438,1.318,1.964.624.932.967,1.444.967,1.444S1330.676,1408,1326.459,1410.964Z" transform="translate(-1248.656 -1246.751)"/><path class="c" d="M1327.556,1402l-.022-.039-.967-1.443c-.353-.526-.8-1.187-1.318-1.964l-.638-.949q-.219-.326-.451-.672l-.047-.073c-2.105-3.131-4.643-6.9-7.5-11.134l-.39-.578-.592-.877-.084-.125c-.934-1.382-1.9-2.81-2.885-4.266l-.324-.477-.413-.608-.013-.018q-.834-1.235-1.688-2.491l-1.091-1.606-.963-1.417q-.279-.41-.56-.826c-1.558-2.291-3.128-4.592-4.676-6.855l-.371-.542-.727-1.064-.084-.121h0c-4.973-7.26-8.961-13-11.855-17.057l-.013-.019c-3.069-4.3-4.817-6.583-5.345-6.981-.051-.039-.1-.076-.155-.11a3.582,3.582,0,0,0-1.212-.5c-.07-.016-.138-.03-.207-.042a5.515,5.515,0,0,0-.832-.078c-.124,0-.24,0-.342,0-.047,0-.1,0-.131.006a8.249,8.249,0,0,0-1,.1l-.023,0c-4.181.676-9.317,4.022-9.534,4.164l-.236.155,1.555,2.281c-2.091,1.445-3.282,2.947-3.541,4.467a3.063,3.063,0,0,0,.4,2.211c0,.006,49.231,58.692,49.231,58.692a3.018,3.018,0,0,0,2.109.692,7.8,7.8,0,0,0,4.056-1.4c.241-.15.477-.306.72-.478h0C1329.749,1406.907,1327.579,1402.048,1327.556,1402Zm-58.126-51.673c.24-1.359,1.41-2.788,3.368-4.128a2.672,2.672,0,0,0,.255-.184c1.641-1.081,6.061-3.547,7.517-2.634a.439.439,0,0,1,.219.544c-.374,1.49-4.622,4.145-6.392,4.265a.3.3,0,0,0,.02.6h.021c2.014-.137,6.5-2.978,6.931-4.716a1.03,1.03,0,0,0-.481-1.2c-1.852-1.159-6.655,1.723-8.015,2.587l-1.228-1.8c1.065-.668,5.5-3.342,9.059-3.926a6,6,0,0,1,2.344-.007,3.581,3.581,0,0,1,1.028.421c.03.02.059.042.089.063a4.027,4.027,0,0,1,.482,3.042c-.345,1.7-1.806,4.4-6.8,7.591-4.687,3-7.741,1.487-8.138,1.265A2.554,2.554,0,0,1,1269.43,1350.327Zm55.646,59.188h0c-.235.165-.462.316-.694.46-3.707,2.31-5.344.916-5.474.795l-48.456-57.763a6.723,6.723,0,0,0,1.867.253,10.826,10.826,0,0,0,5.825-1.948c4.141-2.649,6.512-5.323,7.045-7.947a5.029,5.029,0,0,0,.026-1.976c.778.979,2.072,2.708,4.2,5.7l.013.019c2.909,4.079,6.927,9.86,11.943,17.184l.07.1q.328.482.659.964l.371.542c1.549,2.263,3.118,4.563,4.675,6.853.186.277.374.553.561.827l.963,1.417,1.091,1.606q.858,1.263,1.7,2.506l.013.018.4.594.323.476q1.478,2.185,2.887,4.269l.083.123.592.875.391.579c2.838,4.2,5.359,7.947,7.455,11.063l.047.071q.256.385.5.743l.637.948c.522.777.965,1.438,1.318,1.964l.954,1.424C1327.2,1402.565,1328.927,1406.809,1325.076,1409.515Z" transform="translate(-1247.432 -1245.528)"/><path class="j" d="M1403.916,1392.592l-6.991,6.576-18.06-53.962s-.714-2.755,4.395-3.816l-.47-2.161s8.98-1.79,10.83,1.293C1395.048,1342.9,1403.916,1392.592,1403.916,1392.592Z" transform="translate(-1337.127 -1245.24)"/><path class="c" d="M1402.967,1391.312c-.363-2.031-8.894-49.769-10.331-52.164l-.007-.01,0-.006c-1.948-3.191-10.737-1.481-11.111-1.406l-.276.055.471,2.166c-1.971.45-3.3,1.211-3.956,2.264a2.5,2.5,0,0,0-.378,1.833l18.2,54.391,7.415-6.975Zm-25.064-47.453a2.011,2.011,0,0,1,.331-1.371c.6-.944,1.927-1.654,3.85-2.055,2.142-.424,5.734-.731,6.43.23a.3.3,0,0,1,0,.4c-.717.983-4.635,1.669-5.975,1.23a.3.3,0,0,0-.186.568,4.544,4.544,0,0,0,1.333.158c1.863,0,4.584-.606,5.311-1.6a.882.882,0,0,0,0-1.1c-1.036-1.431-5.419-.76-6.754-.518l-.343-1.576c1.5-.263,8.643-1.363,10.238,1.182a3.183,3.183,0,0,1-.551,2.351c-.762,1.152-2.649,2.709-7.31,3.58C1379.919,1346.148,1378.163,1344.187,1377.9,1343.858Zm17.926,53.58-17.574-52.511a6.725,6.725,0,0,0,4.026,1.155,11.408,11.408,0,0,0,2.1-.206c3.895-.728,6.475-2.013,7.669-3.819a4.178,4.178,0,0,0,.568-1.25c1.8,6.7,7,34.918,9.778,50.454Z" transform="translate(-1335.906 -1244.008)"/><path class="j" d="M1461.944,1417.187c-2.143,7.349-5.5,15.841-7.115,20.208-.033.1-.068.19-.1.281-.161.441-.3.834-.419,1.174-.146.417-.255.755-.321,1-.127.473.419,3.046.384,6a13.336,13.336,0,0,1-1.263,5.966,7.231,7.231,0,0,1-1.469,1.953v0a6.9,6.9,0,0,1-1.25.925,7.417,7.417,0,0,1-.724.367c-.511.227-2.365-1.266-3.989-2.906a12.277,12.277,0,0,1-2.668-3.428c-.177-.641.593-1.518.593-1.518-.2.009-4.148-.122-3.747-.9a3.942,3.942,0,0,1,.96-1.021c.3-.251.646-.515,1.021-.79.55-.4,1.159-.829,1.754-1.25a14.944,14.944,0,0,0,2.907-2.4,7.291,7.291,0,0,0,.773-2c.55-1.929,1.229-5.1,2.153-9.441q.285-1.34.6-2.83c.018-.089.039-.179.059-.268a51.774,51.774,0,0,1,1.916-6.531v0c2.66-7.34,6.646-13.731,9.261-15.354.731-.454,1.355-.535,1.813-.159a2.632,2.632,0,0,1,.727,1.676C1464.172,1408.34,1463.3,1412.535,1461.944,1417.187Z" transform="translate(-1386.861 -1298.497)"/><path class="h" d="M1448,1453.864c-.989,0-2.983-1.854-4.146-3.027-.576-.581-2.476-2.555-2.758-3.584a1.753,1.753,0,0,1,.266-1.276c-1.052-.05-2.984-.224-3.37-.823a.568.568,0,0,1-.025-.579,4.11,4.11,0,0,1,1.049-1.132c.268-.225.6-.481,1.038-.8.419-.308.879-.633,1.324-.947l.434-.307a14.972,14.972,0,0,0,2.826-2.317,7.185,7.185,0,0,0,.719-1.885c.531-1.862,1.165-4.8,2.147-9.417q.285-1.341.6-2.83c.019-.089.039-.182.06-.273a51.957,51.957,0,0,1,1.908-6.517l.021-.058c2.585-7.132,6.63-13.811,9.408-15.534,1.123-.7,1.831-.457,2.226-.131a2.927,2.927,0,0,1,.853,1.9c.339,2.2-.272,5.93-1.869,11.4h0c-1.727,5.924-4.2,12.462-6,17.235-.427,1.13-.809,2.143-1.124,3-.029.086-.063.176-.1.264-.165.454-.307.845-.422,1.183-.146.419-.252.748-.314.979a9.335,9.335,0,0,0,.108,1.4,35.62,35.62,0,0,1,.288,4.5,13.555,13.555,0,0,1-1.3,6.127,7.659,7.659,0,0,1-1.429,1.94v0l-.113.107a7.29,7.29,0,0,1-1.314.972,7.762,7.762,0,0,1-.759.385A.584.584,0,0,1,1448,1453.864Zm-5.165-8.6-.536.615c-.209.24-.612.846-.517,1.188a12.107,12.107,0,0,0,2.577,3.273c1.925,1.943,3.273,2.824,3.6,2.824h.006a7,7,0,0,0,.673-.343,6.572,6.572,0,0,0,1.12-.817l.066-.062a6.9,6.9,0,0,0,1.4-1.858,12.868,12.868,0,0,0,1.222-5.806,34.983,34.983,0,0,0-.284-4.417,6.014,6.014,0,0,1-.088-1.668c.068-.252.175-.588.329-1.027.116-.339.259-.735.421-1.178l.007-.018c.031-.083.063-.169.093-.257.318-.862.7-1.876,1.128-3.008,1.8-4.763,4.261-11.286,5.981-17.183h0c1.545-5.291,2.167-9.022,1.849-11.091a2.374,2.374,0,0,0-.6-1.455c-.314-.259-.785-.2-1.4.186-2.652,1.645-6.556,8.137-9.094,15.114l-.021.061a51.286,51.286,0,0,0-1.9,6.486c-.021.09-.041.178-.058.264q-.319,1.493-.6,2.832c-.985,4.633-1.621,7.581-2.158,9.465a7.4,7.4,0,0,1-.828,2.109,14.9,14.9,0,0,1-2.99,2.478l-.435.308c-.442.312-.9.635-1.313.938s-.745.56-1,.776a4.361,4.361,0,0,0-.823.827,11.471,11.471,0,0,0,3.367.47Zm5.142,7.9Z" transform="translate(-1385.292 -1296.928)"/><path class="h" d="M1478.053,1356.431s7.341-7.948,9.262-23.848a169.807,169.807,0,0,0,.882-29.633l-15.6,1.326s-1.193,21.812-1.81,26.82c-.858,6.967-4.6,25.335-4.6,25.335Z" transform="translate(-1408.359 -1216.079)"/><path class="j" d="M1476.464,1349.761h-12.222l.092-.348c7.95-30,4.811-54.425,4.779-54.668a.277.277,0,1,1,.549-.074,117.673,117.673,0,0,1,.632,16.027,166.63,166.63,0,0,1-5.332,38.509h11.5a.277.277,0,0,1,0,.554Z" transform="translate(-1406.77 -1209.133)"/><path class="i" d="M1317.446,987.664s-2.07,8.568.381,10.778,12.876,3.42,14.748,2.588,5.17-10.514,5.17-10.514-4.161,1.573-6.468,1.558-8.029.068-10.634-1.546A14.382,14.382,0,0,1,1317.446,987.664Z" transform="translate(-1286.407 -958.996)"/><path class="j" d="M1347.91,1013.695c.137.621-1.7,2.493-3.27,2.211-2.569-.46-2.778-3.2-2.19-2.947a5.289,5.289,0,0,0,2.545,1.235C1346.665,1014.443,1347.818,1013.278,1347.91,1013.695Z" transform="translate(-1307.239 -979.607)"/><path class="h" d="M1344.047,849.1l-.291,2.867-29.589-3.006.291-2.867a14.871,14.871,0,0,1,29.589,3.006Z" transform="translate(-1284.4 -832.717)"/><path class="j" d="M1348.441,835.571s-12.157,2.83-16.719,14c-.457,1.119-5.168.663-5.289-.908-.638-8.329,6.69-14.99,6.69-14.99a14.886,14.886,0,0,1,15.318,1.894Z" transform="translate(-1294.369 -832.37)"/><path class="m" d="M1326.718,920.3l-30.854-3.134a1.317,1.317,0,0,1-1.177-1.443l.012-.117a1.316,1.316,0,0,1,1.443-1.177L1327,917.561a1.317,1.317,0,0,1,1.177,1.443l-.012.117A1.316,1.316,0,0,1,1326.718,920.3Z" transform="translate(-1268.51 -899.273)"/><path class="j" d="M1224.53,1496.658a.277.277,0,0,1-.021-.553l14.392-1.1a.28.28,0,0,1,.3.255.277.277,0,0,1-.255.3l-14.392,1.1Z" transform="translate(-1211.085 -1372.681)"/></g><g transform="translate(83.795 416.987)"><path class="j" d="M356.232,1062.651s-1.261,13.243-.2,14.708,8.948,3.352,8.948,3.352l-12.026,30.957-21.894-2.116-1.42-22.413s9.994-8.141,10.6-9.813c.834-2.314.836-14.674.836-14.674Z" transform="translate(-302.368 -1024.987)"/><path class="k" d="M351.873,1110.738l-22.338-2.159-1.443-22.791.111-.09c2.763-2.251,10.038-8.38,10.511-9.692.808-2.242.82-14.457.82-14.58a.277.277,0,0,1,.277-.277h0a.277.277,0,0,1,.277.277c0,.507-.012,12.436-.853,14.768-.593,1.646-9.13,8.667-10.572,9.844l1.4,22.034,21.45,2.073,11.835-30.466c-1.612-.4-7.8-2-8.8-3.384-1.09-1.506.02-13.53.15-14.9a.277.277,0,1,1,.552.052c-.5,5.281-.985,13.506-.253,14.519.82,1.133,6.622,2.726,8.788,3.245l.309.074Z" transform="translate(-301.105 -1023.762)"/><path class="k" d="M379.8,919.164c2.738.325,9.4,1.029,9.339,5.933a126.96,126.96,0,0,1-1.707,16.553,3.044,3.044,0,0,1-3.042,2.563l-16.888-.2a3.045,3.045,0,0,1-2.991-2.739c-.53-5.192-1.554-16.185-.919-17.832C365.748,917.83,375.463,918.649,379.8,919.164Z" transform="translate(-329.886 -907.689)"/><path class="j" d="M374.569,968.061c-.9-.959-1.22-4.711-1.272-8.988a.355.355,0,0,0-.169-.3,4.98,4.98,0,0,1-2.616-4.227c.063-1.837,1.386-1.436,2.422-.832a.282.282,0,0,0,.419-.248c.145-5.155.483-9.672.483-9.672l20.068.243s-.095,4.6-.35,9.751c-.011.231-1,12.52-1.5,13.627a3.432,3.432,0,0,1-1.46,1.5s-1.3,1.038-8.594.949Z" transform="translate(-335.693 -928.072)"/><path class="k" d="M381.649,968.907q-.425,0-.88-.005a.278.278,0,0,1,0-.557h0c6.985.082,8.409-.883,8.423-.892l.027-.018a3.161,3.161,0,0,0,1.347-1.376c.459-1.027,1.448-13.015,1.475-13.527.216-4.372.318-8.387.343-9.462l-19.525-.236c-.073,1.035-.34,5.007-.464,9.4a.568.568,0,0,1-.292.487.546.546,0,0,1-.545-.006c-.735-.428-1.311-.569-1.622-.4-.236.13-.364.466-.382,1a4.736,4.736,0,0,0,2.483,3.98.63.63,0,0,1,.3.533c.076,6.3.693,8.265,1.2,8.8a.278.278,0,1,1-.406.381c-.843-.9-1.284-3.9-1.348-9.175a.078.078,0,0,0-.036-.065A5.276,5.276,0,0,1,369,953.293a1.6,1.6,0,0,1,.67-1.467c.5-.278,1.234-.142,2.171.4.144-5.118.481-9.656.484-9.7l.02-.261,20.61.25-.006.281c0,.046-.1,4.661-.35,9.759-.006.116-.989,12.535-1.523,13.727a3.689,3.689,0,0,1-1.559,1.62C389.3,968.063,387.847,968.907,381.649,968.907Z" transform="translate(-334.463 -926.828)"/><path class="k" d="M426.594,1001.573h-.041a.646.646,0,0,1-.6-.685l.026-.414a.646.646,0,1,1,1.29.08l-.026.414A.646.646,0,0,1,426.594,1001.573Z" transform="translate(-380.897 -973.793)"/><path class="k" d="M472.571,1002.771h-.014a.646.646,0,0,1-.632-.66l.011-.489a.653.653,0,0,1,.66-.632.646.646,0,0,1,.632.66l-.01.489A.646.646,0,0,1,472.571,1002.771Z" transform="translate(-418.387 -974.709)"/><path class="k" d="M418.663,986.817a.379.379,0,0,1-.087-.01c-.035-.008-3.48-.8-5.152-.159a.378.378,0,0,1-.272-.706c1.889-.729,5.446.093,5.6.128a.378.378,0,0,1-.086.747Z" transform="translate(-370.266 -962.194)"/><path class="k" d="M436.134,1043.945c-.323.465,1.276,2.088,3.158,2.028,3.07-.1,4.047-2.19,3.3-2.05a9.261,9.261,0,0,1-3.251.7C437.361,1044.645,436.351,1043.633,436.134,1043.945Z" transform="translate(-389.169 -1009.686)"/><path class="k" d="M372.885,925.923s-9.337-2.438-6.679,10.069c1.52,7.15-1.768-2.085,6.342-7.22C373.39,928.239,372.885,925.923,372.885,925.923Z" transform="translate(-331.796 -913.343)"/><path class="k" d="M400.783,940.746s.507-4.961-1.793-5.917-1.9,1.411-6.521,1.4-8.368-2.047-10.124-1.753-3.621,3.138-3.621,3.138l-.435-4.766,10.532-1.369,7.129.778,4.205,1.186Z" transform="translate(-342.037 -918.027)"/><path class="k" d="M457.1,994.645a.319.319,0,0,1-.063-.631c.648-.132,1.377-.452,1.43-.719.086-.436.066-.507-.693-2.528-.171-.455-.378-1-.626-1.676l-.008-.024a6.344,6.344,0,0,1-.222-2.438c.068-.316.344-.58.82-.784a6,6,0,0,1,4.733.241.319.319,0,1,1-.333.544,5.373,5.373,0,0,0-4.149-.2c-.327.14-.435.274-.447.332a5.746,5.746,0,0,0,.209,2.119c.246.664.451,1.209.621,1.661.781,2.079.845,2.249.722,2.875-.162.824-1.636,1.162-1.929,1.221A.313.313,0,0,1,457.1,994.645Z" transform="translate(-406.04 -962.057)"/><path class="m" d="M343.535,1489.016a134.925,134.925,0,0,1-21.25-3.744q-3.722-.983-7.41-2.232l-.591-5.549-.037,5.333q-3.962-1.373-7.835-3.089l-.724,2.075a1.107,1.107,0,0,1-1.41.681l-10.29-3.589-6.339-2.21c.063-1.988.133-3.847.21-5.562q.061-1.288.126-2.461c0-.078.009-.155.013-.231a70.534,70.534,0,0,1,.8-8.161c.037-.186.072-.369.109-.552q.111-.548.223-1.074v-.009c.07-.327.14-.643.212-.956.469-2.069.969-3.882,1.481-5.474v0a34.981,34.981,0,0,1,3.166-7.308c1.7-2.83,3.005-3.552,3.005-3.552h.092l9.271-.083h0l15.924-.144,9.939-.089s2.333-.406,6.947,14.953l0,0c.015.05.03.1.044.153a.014.014,0,0,1,0,.007q.424,1.418.877,3.02v0c.135.48.27.971.408,1.475.072.262.144.53.218.8.277,1.026.535,2.284.775,3.748.751,4.563,1.335,11.132,1.783,18.94Q343.413,1486.5,343.535,1489.016Z" transform="translate(-268.13 -1333.52)"/><path class="e" d="M206.25,1181.481c-.273.427,15.589,7.733,15.589,7.733l4.088-5.032-3.486,42.65,56.6,1.156-3.425-42.464,8.8,2.251s-8.307-35.058-23.857-37.661c-1.939-.325-4.853,4.94-7.34,5-5.385.123-13.192-5.886-19.385-5C230.7,1150.564,220.178,1159.664,206.25,1181.481Z" transform="translate(-201.754 -1096.23)"/><path class="j" d="M340.174,1263.684l-36.03-.209s-2.887,16.759-8.112,20.019l-2.057,35.846,51.156,1.044Z" transform="translate(-273.287 -1188.738)"/><path class="j" d="M557.342,1399.087a.379.379,0,0,1-.7-.147,52.655,52.655,0,0,1,.309-6.257,19.877,19.877,0,0,0-.675-4.018s-3.836,3.823-4.107,2.8,3.468-5.43,3.378-6.926-4.134-49.309-4.134-49.309l11.333-.634-2.865,49.552s1.814,5.76,1.538,6.978C561.069,1392.67,558.483,1397.155,557.342,1399.087Z" transform="translate(-483.202 -1246.729)"/><path class="h" d="M555.694,1398.246a.7.7,0,0,1-.167-.021.616.616,0,0,1-.485-.569,55.259,55.259,0,0,1,.31-6.3,15.945,15.945,0,0,0-.551-3.453c-1.12,1.088-3.124,2.9-3.876,2.693a.483.483,0,0,1-.347-.361c-.154-.584.5-1.664,1.575-3.378.86-1.369,1.835-2.92,1.794-3.6-.089-1.476-4.094-48.824-4.134-49.3l-.024-.284,11.928-.668-2.88,49.811c.247.789,1.806,5.848,1.528,7.074-.348,1.533-2.725,5.7-4.11,8.043h0A.647.647,0,0,1,555.694,1398.246Zm-.595-11.416.121.468a19.6,19.6,0,0,1,.682,4.115,52.619,52.619,0,0,0-.308,6.215c0,.037.036.053.064.06a.109.109,0,0,0,.12-.039h0c1.1-1.866,3.7-6.369,4.047-7.884.19-.84-.812-4.547-1.532-6.834l-.015-.048,0-.051,2.847-49.242-10.739.6c.335,3.963,4.025,47.61,4.111,49.032.052.859-.885,2.35-1.878,3.93a10.184,10.184,0,0,0-1.514,2.912c.429-.021,2.062-1.312,3.649-2.893Z" transform="translate(-481.877 -1245.43)"/><path class="e" d="M350.986,1452.766l-25.446-8.874a2.691,2.691,0,0,1-1.655-3.426l2.771-7.945a2.691,2.691,0,0,1,3.426-1.655l25.446,8.874Z" transform="translate(-297.553 -1325.106)"/><rect class="e" width="16.786" height="9.39" transform="translate(23.806 135.049) rotate(-70.776)"/><path class="j" d="M302.632,1591.469l-1.695,4.861-.724,2.075a1.107,1.107,0,0,1-1.41.681l-10.29-3.589-6.339-2.21-.5-.174a1.107,1.107,0,0,1-.681-1.41l1.388-3.978.705-2.021.234-.67.092-.266a1.107,1.107,0,0,1,1.41-.681l1.791.624.925.323.971.338,6.971,2.431,6.467,2.256A1.107,1.107,0,0,1,302.632,1591.469Z" transform="translate(-262.654 -1450.113)"/><path class="o" d="M2.1,0H13.164a2.1,2.1,0,0,1,2.1,2.1v0a2.1,2.1,0,0,1-2.1,2.1H2.1A2.1,2.1,0,0,1,0,2.1v0A2.1,2.1,0,0,1,2.1,0Z" transform="matrix(0.329, -0.944, 0.944, 0.329, 52.478, 128.014)"/><path class="o" d="M492.745,1505.13l-3.1-1.082,3.778-10.833,3.1,1.082a1.938,1.938,0,0,1,1.192,2.469l-2.5,7.173A1.938,1.938,0,0,1,492.745,1505.13Z" transform="translate(-432.833 -1376.068)"/><path class="o" d="M526.609,1528.263l-9.415-3.283a1.127,1.127,0,0,1-.693-1.435h0a1.127,1.127,0,0,1,1.435-.693l9.415,3.283a1.127,1.127,0,0,1,.693,1.435h0A1.127,1.127,0,0,1,526.609,1528.263Z" transform="translate(-454.682 -1400.182)"/><path class="c" d="M348.63,1453.5a.276.276,0,0,1-.263-.363l2.519-7.7a.277.277,0,0,1,.527.172l-2.519,7.7A.277.277,0,0,1,348.63,1453.5Z" transform="translate(-317.627 -1336.953)"/><path class="h" d="M350.145,1507.088a.282.282,0,0,1-.092-.016l-20.664-7.271a.277.277,0,1,1,.184-.522l20.664,7.271a.277.277,0,0,1-.092.538Z" transform="translate(-302.013 -1381)"/><path class="j" d="M194.046,1301.379c5.123-2.49,11.569,5.164,11.569,5.164.246.21-9.789,17.239-8.255,19.458,3.408,4.927,9.516,13.639,12.469,17.112a8.93,8.93,0,0,1,3.312-2.258.188.188,0,0,1,.236.224c-.2.624-.732,2.311-1.156,3.469,2.565,1.449,7.554,2.807,7.116,4.274-.778,2.6-3.013,6.646-5.72,5.8-4.207-1.318-8.418-7.831-9.073-8.541-2.3-2.488-19.134-15.886-21.072-21.949C182.623,1321.475,190.056,1303.318,194.046,1301.379Z" transform="translate(-183.129 -1219.239)"/><path class="h" d="M213.135,1353.766a2.73,2.73,0,0,1-.82-.128c-3.6-1.127-7.111-5.847-8.612-7.862-.27-.363-.483-.649-.582-.756-.556-.6-2.027-1.9-3.889-3.537-5.895-5.189-15.76-13.875-17.243-18.516-.5-1.563,1.455-7.233,3.483-11.84,1.015-2.307,4.538-9.934,7.234-11.245h0c5.184-2.518,11.457,4.711,11.887,5.217.216.188.173.268-1.533,3.478-1.313,2.47-3.3,6.2-4.765,9.433-2.237,4.92-2.167,6.238-1.927,6.585,3.313,4.79,9.243,13.25,12.256,16.857a8.808,8.808,0,0,1,3.24-2.116.487.487,0,0,1,.461.145.44.44,0,0,1,.1.433c-.195.619-.671,2.119-1.079,3.258.772.415,1.745.829,2.688,1.231,2.534,1.08,4.722,2.012,4.352,3.251-.653,2.186-2.1,4.809-3.851,5.741A2.955,2.955,0,0,1,213.135,1353.766Zm-18.109-53.852a4.69,4.69,0,0,0-2.078.468c-1.679.816-4.35,5.019-6.969,10.969-2.314,5.256-3.835,10.284-3.463,11.448,1.437,4.5,11.231,13.118,17.082,18.269,1.874,1.65,3.354,2.953,3.93,3.577.118.128.317.4.619.8,1.469,1.972,4.908,6.591,8.334,7.664a2.264,2.264,0,0,0,1.791-.2c1.6-.853,2.981-3.4,3.581-5.411.229-.765-2.138-1.773-4.039-2.583a31.366,31.366,0,0,1-2.949-1.371l-.2-.115.081-.221c.387-1.06.866-2.551,1.1-3.291a9.252,9.252,0,0,0-3.027,2.138l-.212.231-.2-.239c-2.959-3.479-9.093-12.228-12.486-17.134-1.127-1.63,2.846-9.42,6.658-16.593.7-1.315,1.362-2.564,1.522-2.949C203.417,1304.605,199.1,1299.915,195.026,1299.915Z" transform="translate(-181.91 -1217.993)"/><path class="j" d="M430.833,1569.774l-.035,0a.277.277,0,0,1-.24-.31l.9-7.122,4.386-2.895v-3.9a.277.277,0,1,1,.554,0v4.2l-4.422,2.918-.872,6.869A.277.277,0,0,1,430.833,1569.774Z" transform="translate(-384.655 -1426.663)"/><path class="e" d="M556.811,1274.988s5.156,12.663,4.475,15.657h-14.4l-1.026-14.148Z" transform="translate(-478.672 -1198.126)"/><path class="e" d="M229.211,1266.493l-5.62,9.39-15.157-9.4,9.141-12.63Z" transform="translate(-203.538 -1180.891)"/><path class="h" d="M343.73,874.951v3.088H375.6v-3.088a15.936,15.936,0,0,0-31.872,0Z" transform="translate(-313.857 -859.002)"/><path class="j" d="M383.669,861.122s12.655,4.334,16.308,16.741c.366,1.242,5.438,1.266,5.737-.4,1.583-8.81-5.509-16.705-5.509-16.705a15.952,15.952,0,0,0-16.536.36Z" transform="translate(-346.423 -858.627)"/><rect class="m" width="36.056" height="2.948" rx="1.474" transform="translate(65.551 21.049) rotate(180)"/><path class="m" d="M493.846,1148.018a53.64,53.64,0,0,1,5.786,22.692h-3.378s-1.138-17.53-5.335-22.56Z" transform="translate(-433.874 -1094.595)"/><path class="m" d="M340.673,1148.018a53.286,53.286,0,0,1,6.058,22.692h-3.378s-1.018-16.648-5.216-21.567Z" transform="translate(-309.297 -1094.595)"/><path class="h" d="M425.571,1313.126h-3.934a8.2,8.2,0,0,1-8.188-8.188v-3.281a1.1,1.1,0,0,1,1.1-1.1h18.118a1.1,1.1,0,0,1,1.1,1.1v3.281A8.2,8.2,0,0,1,425.571,1313.126Zm-11.026-12.012a.543.543,0,0,0-.543.542v3.281a7.643,7.643,0,0,0,7.634,7.635h3.934a7.643,7.643,0,0,0,7.635-7.635v-3.281a.543.543,0,0,0-.542-.542Z" transform="translate(-370.705 -1218.977)"/></g><g transform="translate(152.423 411.767)"><path class="j" d="M689.059,1036.826s.482,13.015-.673,14.5-7.186,4.863-7.186,4.863l17.395,21.58,15.484-21.317s-6.6-2.9-7.229-4.612c-.864-2.376-.706-15.014-.706-15.014Z" transform="translate(-657.657 -998.71)"/><path class="k" d="M696.746,1077l-17.828-22.117.286-.16c.06-.033,6-3.368,7.1-4.792.8-1.031.807-9.128.615-14.319a.277.277,0,0,1,.553-.021c.05,1.343.451,13.16-.731,14.68-1.042,1.34-5.756,4.074-6.984,4.773l16.963,21.045,15.071-20.748c-1.432-.645-6.477-3.017-7.064-4.631-.871-2.4-.729-14.594-.723-15.112a.274.274,0,0,1,.28-.274.277.277,0,0,1,.273.28c0,.126-.148,12.614.689,14.916.479,1.317,5.273,3.661,7.08,4.453l.315.138Z" transform="translate(-655.796 -997.485)"/><path class="k" d="M707.053,893.631c-2.729.29-9.369.909-9.369,5.781a125.807,125.807,0,0,0,1.5,16.464,3.029,3.029,0,0,0,3,2.582H719a3.03,3.03,0,0,0,3.011-2.685c.59-5.151,1.743-16.059,1.13-17.7C721.056,892.475,711.374,893.172,707.053,893.631Z" transform="translate(-671.098 -881.704)"/><path class="j" d="M701.984,942.144c4.769.553,10.724-.349,12.377-2,.969-.969,1.358-4.8,1.468-9.174a.361.361,0,0,1,.183-.3c1.178-.676,2.884-2.121,2.834-4.29-.043-1.879-1.454-1.485-2.563-.88a.3.3,0,0,1-.442-.259c-.087-5.273-.389-9.9-.389-9.9h-21.33s.042,4.7.246,9.975a.3.3,0,0,1-.45.271c-1.128-.652-2.682-1.184-2.726.789-.056,2.459,2.143,3.988,3.273,4.519a.356.356,0,0,1,.2.3c.248,3.719.6,6.935,1.117,8.073a3.57,3.57,0,0,0,1.532,1.554Z" transform="translate(-665.804 -899.651)"/><path class="k" d="M703.772,941.365a26.6,26.6,0,0,1-3.043-.169.277.277,0,1,1,.064-.55c4.8.556,10.587-.36,12.149-1.922.543-.543,1.225-2.543,1.387-8.986a.643.643,0,0,1,.323-.537c.827-.474,2.746-1.817,2.7-4.043-.012-.537-.143-.882-.388-1.024-.334-.193-.962-.059-1.767.38a.576.576,0,0,1-.852-.5c-.075-4.5-.309-8.577-.372-9.623h-20.79c.013,1.089.069,5.2.243,9.687a.576.576,0,0,1-.865.522c-.877-.507-1.558-.674-1.918-.472-.249.14-.381.485-.393,1.027-.061,2.691,2.789,4.11,3.114,4.263a.633.633,0,0,1,.362.531c.359,5.383.793,7.309,1.093,7.978a3.3,3.3,0,0,0,1.419,1.428.277.277,0,0,1-.279.479,3.833,3.833,0,0,1-1.645-1.679c-.465-1.032-.849-3.78-1.141-8.168a.078.078,0,0,0-.045-.067c-1.616-.76-3.484-2.467-3.432-4.776a1.619,1.619,0,0,1,.675-1.5c.553-.311,1.383-.151,2.466.475a.02.02,0,0,0,.023,0,.021.021,0,0,0,.011-.021c-.2-5.217-.246-9.936-.247-9.983l0-.28h21.869l.017.259c0,.046.3,4.69.389,9.909a.021.021,0,0,0,.012.02.019.019,0,0,0,.021,0c1.009-.55,1.786-.676,2.309-.373a1.628,1.628,0,0,1,.664,1.49c.057,2.523-2.06,4.013-2.974,4.536a.084.084,0,0,0-.044.07c-.136,5.394-.643,8.457-1.549,9.363C711.978,940.471,707.918,941.365,703.772,941.365Z" transform="translate(-664.581 -898.428)"/><path class="p" d="M713.385,1157.688l19.06.817-2.083,20.891h-20.4Z" transform="translate(-681.111 -1097.26)"/><path class="h" d="M627.593,1175.356s-12.544,3.7-20.252,0c-11.614-5.571-17.235,5.257-27.089,2.555-.612-.168-7.129-.463-14.353-1.02-7.933-.611-10.8-4.29-11.413-5.647a13.594,13.594,0,0,1-.27-8.461l9.442-37.8s13.544-6.771,14.988-6.518c1.8.315,9.688,2.594,9.924,3.079.811,1.67,4.418,16.662,5.391,16.388.643-.181,4.661-15.7,5.313-16.215,2.8-2.219,8.769-3.813,9.346-3.662l12.372,6.929,12.886,38.325C635.514,1167.448,631.546,1173.309,627.593,1175.356Z" transform="translate(-553.667 -1064.934)"/><path class="j" d="M650.649,1302.665a.225.225,0,0,1-.068-.011.228.228,0,0,1-.15-.286L654.607,1289a.228.228,0,0,1,.436.136l-4.177,13.372A.229.229,0,0,1,650.649,1302.665Z" transform="translate(-632.559 -1204.198)"/><path class="j" d="M671,1549.663l-.009,1.875-.011,2.462v0l-.013,2.788-.013,3s0,0,0,0l-.059,12.535q-1.764.623-3.559,1.333s-.943.22-2.673.55c-1.143.219-2.629.487-4.414.773-3.8.611-8.964,1.307-15.053,1.791l-.057.005h-.015a183.92,183.92,0,0,1-26.162.251V1548.45l5.815.135,1.246.03,9.116.212,1.246.03,4.176.1,1.477.033,4.853.114,4.331.1,1.338.031,3.6.085,1.246.028,2.843.066,5.018.118h0l1.827.042,1.246.028.031,0Z" transform="translate(-606.907 -1415.886)"/><path class="k" d="M843.415,1352.5a.229.229,0,0,1-.106-.431l16.7-8.767a.228.228,0,1,1,.213.4l-16.7,8.767A.23.23,0,0,1,843.415,1352.5Z" transform="translate(-789.739 -1248.588)"/><path class="j" d="M861.205,1287.348a.228.228,0,0,1-.218-.16l-5.921-18.732a.228.228,0,1,1,.436-.138l5.921,18.732a.229.229,0,0,1-.149.287A.232.232,0,0,1,861.205,1287.348Z" transform="translate(-799.418 -1187.339)"/><path class="k" d="M793.412,976.282h-.006a.554.554,0,0,1-.548-.559l.005-.5a.554.554,0,1,1,1.108.012l-.005.5A.554.554,0,0,1,793.412,976.282Z" transform="translate(-748.702 -948.032)"/><path class="k" d="M739.806,976.282a.554.554,0,0,1-.554-.548l0-.5a.554.554,0,0,1,.549-.559h.005a.554.554,0,0,1,.554.549l0,.5a.554.554,0,0,1-.548.559Z" transform="translate(-704.989 -948.032)"/><path class="k" d="M729.675,959.357a.277.277,0,0,1-.142-.515,5.16,5.16,0,0,1,3.735-.536.277.277,0,0,1-.147.534,4.677,4.677,0,0,0-3.3.478A.276.276,0,0,1,729.675,959.357Z" transform="translate(-696.957 -934.573)"/><path class="k" d="M790.433,959.858a.274.274,0,0,1-.142-.039,4.682,4.682,0,0,0-3.3-.478.277.277,0,0,1-.147-.534,5.161,5.161,0,0,1,3.735.536.277.277,0,0,1-.142.515Z" transform="translate(-743.63 -934.982)"/><path class="h" d="M612.464,1412.292l1.2,22.141,52.037,1.213.526-27.026Z" transform="translate(-601.61 -1301.87)"/><path class="j" d="M608.881,1368.182a36.448,36.448,0,0,1-6.549-.595.228.228,0,1,1,.082-.449,33.368,33.368,0,0,0,16.79-1.04,37.808,37.808,0,0,1,1.012-8.729l-14.134-4.763a.228.228,0,1,1,.146-.433l14.543,4.9-.06.21a36.351,36.351,0,0,0-1.051,8.972v.153l-.141.058A30.707,30.707,0,0,1,608.881,1368.182Z" transform="translate(-593.195 -1255.832)"/><path class="h" d="M733.219,1625.9a.277.277,0,0,1-.275-.25l-.944-9.855-3.063-.774-1.922-5.409a.277.277,0,0,1,.522-.185l1.823,5.129,3.154.8.982,10.244a.277.277,0,0,1-.249.3Z" transform="translate(-695 -1465.455)"/><path class="j" d="M695.79,1334.509l27.516-7.014s7.272-3.238,7.319-5.892l-2.724-8.376c-.7.3-3.35,4.287-6.272,6.382a9.267,9.267,0,0,1-5.157,1.591l-19.423,2.574Z" transform="translate(-669.554 -1224.086)"/><path class="c" d="M694.046,1333.224l1.331-11.349,19.659-2.605h.023a9.081,9.081,0,0,0,4.986-1.54,28.284,28.284,0,0,0,4.654-4.681,7.609,7.609,0,0,1,1.67-1.73l.278-.12,2.833,8.709v.046c-.05,2.8-7.18,6-7.484,6.14l-.044.015Zm1.831-10.856-1.187,10.121,27.1-6.909c1.979-.885,7.024-3.571,7.132-5.59l-2.589-7.958c-.3.291-.761.84-1.214,1.376a28.719,28.719,0,0,1-4.755,4.774,9.468,9.468,0,0,1-5.3,1.644Z" transform="translate(-668.131 -1222.434)"/><path class="m" d="M673.838,1370.713s-1.951,11.232-1.277,12.6,5.62-.414,5.62-.414l1.169-10.9Z" transform="translate(-650.497 -1270.96)"/><path class="j" d="M672.769,1382.619c-.769,0-1.4-.174-1.644-.669-.694-1.406,1.051-11.609,1.252-12.768l.05-.289,6.036,1.408-1.214,11.314-.163.058A15.286,15.286,0,0,1,672.769,1382.619Zm.1-13.054c-.769,4.485-1.707,11.216-1.251,12.139.379.768,3.162.186,5.115-.494l1.124-10.482Z" transform="translate(-649.31 -1269.476)"/><path class="j" d="M689.442,1331.227s-21.624-2.853-25.221-3.213-2.941-2.424-6-2.784a8.4,8.4,0,0,1-4.329-1.469l-2.234,7.153s11.526,3.91,12.965,4.63,20.323,8.992,25.718,8.453,7.014-1.259,7.014-1.259Z" transform="translate(-633.568 -1232.675)"/><path class="c" d="M688.268,1342.143c-6.16,0-23.846-7.784-25.292-8.507-1.406-.7-12.815-4.576-12.93-4.615l-.256-.087,2.442-7.816.32.279a8.3,8.3,0,0,0,4.18,1.4,4.483,4.483,0,0,1,2.859,1.379,4.6,4.6,0,0,0,3.135,1.405c3.56.356,25.013,3.185,25.229,3.214l.122.016,8.172,11.886-.3.135c-.068.03-1.721.743-7.1,1.281A5.77,5.77,0,0,1,688.268,1342.143Zm-37.788-13.559c1.75.595,11.408,3.889,12.744,4.557,1.42.71,20.246,8.955,25.566,8.425a34.408,34.408,0,0,0,6.609-1.124l-7.639-11.111c-1.757-.231-21.678-2.854-25.09-3.2a5.172,5.172,0,0,1-3.453-1.547,3.923,3.923,0,0,0-2.551-1.238,9.855,9.855,0,0,1-4.147-1.3Z" transform="translate(-632.045 -1230.521)"/><path class="m" d="M854.083,1356.424l6.431-1.564a45.982,45.982,0,0,1,4.168,14.519s-7.909,1.566-8.666.781S853.34,1361.508,854.083,1356.424Z" transform="translate(-798.488 -1258.034)"/><path class="c" d="M856.085,1369.23a2.421,2.421,0,0,1-1.5-.293c-.9-.938-2.749-8.895-2.007-13.969l.027-.185,6.824-1.66.1.194a46.7,46.7,0,0,1,4.2,14.617l.027.252-.249.049A49.079,49.079,0,0,1,856.085,1369.23Zm-2.981-14c-.651,4.951,1.189,12.6,1.884,13.32.415.4,4.508-.1,8.163-.812a46.525,46.525,0,0,0-4.014-13.975Z" transform="translate(-797.26 -1256.618)"/><path class="m" d="M674.074,1118.446l-7.444,3.083-8.626-6.77,6.188-.75Z" transform="translate(-638.743 -1061.645)"/><path class="j" d="M663.51,1120.592l-9.278-7.282,6.927-.839L671.7,1117.2Zm-7.886-6.893,7.973,6.258,6.7-2.776-9.226-4.142Z" transform="translate(-635.667 -1060.391)"/><path class="m" d="M799.649,1115.92l7.095,3.751,7.43-7.232-4.584-1.374Z" transform="translate(-754.24 -1059.244)"/><path class="j" d="M804.094,1118.7l-7.754-4.1,10.527-5.142,5.139,1.541Zm-6.533-4.08,6.435,3.4,6.948-6.764-4.029-1.208Z" transform="translate(-751.542 -1057.935)"/><path class="j" d="M770.7,1248.342a.281.281,0,0,1-.281-.281v-23.527a.281.281,0,0,1,.562,0v23.527A.281.281,0,0,1,770.7,1248.342Z" transform="translate(-730.407 -1151.537)"/><rect class="j" width="0.554" height="27.18" transform="translate(39.706 106.918)"/><path class="k" d="M759.306,984.79a.3.3,0,0,1-.066-.007c-.3-.064-1.791-.425-1.946-1.26-.118-.637-.05-.81.773-2.924.18-.462.4-1.021.66-1.7a.311.311,0,0,1,.581.223c-.263.682-.481,1.242-.661,1.7-.8,2.062-.824,2.134-.741,2.585.056.306.887.641,1.464.765a.311.311,0,0,1-.065.615Z" transform="translate(-719.667 -951.312)"/><path class="k" d="M755.284,1023.749c.325.479-1.331,2.119-3.253,2.034-3.138-.138-4.111-2.289-3.352-2.136a9.47,9.47,0,0,0,3.315.753C754.021,1024.449,755.066,1023.428,755.284,1023.749Z" transform="translate(-712.479 -987.958)"/><path class="k" d="M713.634,892.456s14.316,4.136,20.79-.9-3.813-5.242-10-4.613S709.561,888.827,713.634,892.456Z" transform="translate(-683.248 -876.29)"/><path class="k" d="M702.27,899.9s-9.7-2.349-6.7,10.378c.513,2.181.416,3.169.667,1.4a12.491,12.491,0,0,1,5.727-8.856C702.814,902.266,702.27,899.9,702.27,899.9Z" transform="translate(-668.903 -886.926)"/><rect class="q" width="53.208" height="6.447" transform="translate(11.408 129.205)"/><rect class="l" width="1.246" height="7.846" transform="translate(17.869 128.379)"/><rect class="l" width="1.246" height="7.846" transform="translate(28.23 128.505)"/><rect class="l" width="1.246" height="7.846" transform="translate(49.252 128.505)"/><rect class="m" width="1.246" height="7.846" transform="translate(60.187 128.648)"/><rect class="l" width="11.999" height="8.107" transform="translate(33.653 128.51)"/><rect class="h" width="9.184" height="5.63" transform="translate(35.13 129.756)"/><path class="h" d="M715.286,845.585v2.882H685.544v-2.882a14.871,14.871,0,0,1,29.742,0Z" transform="translate(-661.199 -830.703)"/><path class="l" d="M741.225,832.68l-3.854,15.437-.068.273h-7.046l-.076-.273-4.386-15.773a14.885,14.885,0,0,1,15.431.336Z" transform="translate(-694.019 -830.352)"/><rect class="m" width="33.646" height="2.75" rx="1.375" transform="translate(22.393 16.663)"/></g><g transform="translate(209.057 424.969)"><path class="h" d="M922.531,1467.452a163.237,163.237,0,0,0-24.776-.174l.275-3.024.727-8-2.579,10.168v0l-.257,1.015c-.222.021-.445.044-.666.068L891.436,1472l-4.143-3.323a96.942,96.942,0,0,0-14.541,3.928q-1.764.623-3.559,1.333s-.943.22-2.673.55c1.842-5.776,3.511-11.074,4.922-15.643q.368-1.191.711-2.313.357-1.163.685-2.249v0c.467-1.541.89-2.965,1.266-4.249.694-2.372,1.226-4.287,1.565-5.651.764-3.073,1.534-5.63,2.285-7.753.161-.456.319-.89.478-1.307,0,0,0,0,0,0a32.184,32.184,0,0,1,2.756-5.732c2.164-3.411,3.709-3.432,3.746-3.432l.332,0,28.093.273a3.436,3.436,0,0,1,.354.234c.14.1.316.242.524.427a11.215,11.215,0,0,1,1.087,1.117,20.426,20.426,0,0,1,2.932,4.707c.253.545.506,1.13.755,1.761a46.557,46.557,0,0,1,2.4,8.819c.1.546.19,1.251.275,2.106v.006c.048.484.094,1.015.137,1.591.31,4.069.524,10.376.665,18.078C922.507,1465.988,922.518,1466.713,922.531,1467.452Z" transform="translate(-865.4 -1329.365)"/><path class="i" d="M975.356,944.73a28.8,28.8,0,0,0-12.455,6.8c-5.91,5.472-5.486,5.755-4.939,10.461s.12,6.01-3.625,7.37a5.539,5.539,0,0,0-3.206,2.715c-.875,1.532-.508,7-.508,7l40.266-.307s2.279-5.168,1.388-7.6c-1.626-4.445-5.4-5.052-3.979-9.418C989.059,959.414,991.068,945.735,975.356,944.73Z" transform="translate(-933.915 -936.817)"/><path class="e" d="M941.491,1472.105a.277.277,0,0,1-.032-.552l11.358-1.327a.277.277,0,0,1,.064.55l-11.358,1.327Z" transform="translate(-926.306 -1365.303)"/><path class="j" d="M906.369,1487.5l-9.311,10.883-1.98,2.313v0l-.987,1.154-4.085,4.773-4.431-3.537L875.32,1494.9l-5.22-4.168-.719-.574-4.48-3.577-1.8-1.441-.517-.413,1.423-1.725h0l.488-.592,1.467-1.778,1.333-1.613.427-.517.186-.226,2.383-2.885,5.3-6.422.486-.588,1.947-2.358.377-.458,2.912,2.283,2.1,1.647,13.678,10.726,1.127.884Z" transform="translate(-862.187 -1361.508)"/><path class="c" d="M888.308,1505.312l-27.855-22.238,16.167-19.588,28.412,22.278Zm-27.069-22.32,27,21.553,16-18.7L876.7,1464.256Z" transform="translate(-860.453 -1359.809)"/><path class="j" d="M879.738,1449.371c-1.608,6.379-2.6,10.088-2.422,11.087.246,1.4,2.74,6.046,2.757,7.166.01.679-2.784-1.7-2.921-1.771l-.5,1.146s-.79.45-1.289.068c-.427-.327-.472-1.145-.9-1.377a6.59,6.59,0,0,1-1.251-.26c-.367-.2-.464-1.063-.688-1.376-.165-.23-1-.114-1.281-.422-.449-.493-.05-1.195-.361-1.551-.293-.336-.968.04-1.454-.573s2.89-3.485,3.047-4.294c.551-2.837.639-16.874,3.844-21.454S882.356,1438.988,879.738,1449.371Z" transform="translate(-867.727 -1336.109)"/><path class="h" d="M878.721,1466.788c-.347,0-.983-.373-2.664-1.711l-.031-.024-.4.906-.08.045c-.039.022-.957.535-1.594.047a1.918,1.918,0,0,1-.523-.8,1.384,1.384,0,0,0-.317-.532l-.129-.018a4.119,4.119,0,0,1-1.149-.259,1.669,1.669,0,0,1-.594-.992,2.453,2.453,0,0,0-.179-.453,1.758,1.758,0,0,0-.369-.076,1.466,1.466,0,0,1-.9-.335,1.44,1.44,0,0,1-.3-1.1.8.8,0,0,0-.062-.46c-.05-.057-.188-.067-.349-.079a1.393,1.393,0,0,1-1.114-.5c-.4-.5.327-1.351,1.642-2.809a8.287,8.287,0,0,0,1.351-1.71c.138-.708.248-2.155.387-3.987.427-5.615,1.072-14.1,3.5-17.573,1.117-1.6,2.078-1.6,2.687-1.322,2.145.981,3.181,7.448,1.237,15.159l-.487,1.926c-1.251,4.944-2.078,8.21-1.932,9.045a22.152,22.152,0,0,0,1.327,3.36,16.329,16.329,0,0,1,1.434,3.85.383.383,0,0,1-.208.362A.408.408,0,0,1,878.721,1466.788Zm-2.939-2.559.265.144a3.566,3.566,0,0,1,.354.27,14.815,14.815,0,0,0,2.128,1.523,25.037,25.037,0,0,0-1.357-3.408,21.506,21.506,0,0,1-1.366-3.49c-.167-.952.582-3.909,1.94-9.277l.487-1.925c1.974-7.83.789-13.734-.93-14.52-.757-.346-1.507.427-2,1.136-2.343,3.349-3.006,12.08-3.4,17.3-.141,1.85-.252,3.311-.4,4.051a6.416,6.416,0,0,1-1.483,1.976c-.606.672-1.614,1.79-1.606,2.11a.876.876,0,0,0,.708.279.971.971,0,0,1,.725.267,1.156,1.156,0,0,1,.2.837.947.947,0,0,0,.159.71,1.263,1.263,0,0,0,.569.16,1.03,1.03,0,0,1,.731.287,2.4,2.4,0,0,1,.264.615c.081.243.2.61.331.679a4.664,4.664,0,0,0,.962.2.812.812,0,0,1,.289.061,1.529,1.529,0,0,1,.591.819,1.519,1.519,0,0,0,.351.583c.27.207.726.032.907-.051Z" transform="translate(-866.49 -1334.872)"/><path class="j" d="M1103.821,1350.809c-.2.184.191.516-6.22,8.946-3.938,5.179-6.2,8.233-7.076,8.713-1.987,1.086-4.692,2.943-4.315,3.1l10.08,1.582s-.795-2.317-.266-2.937c1.853-2.176,13.211-15.571,14.774-20.874S1103.821,1350.809,1103.821,1350.809Z" transform="translate(-1044.505 -1265.081)"/><path class="c" d="M1095.475,1372.309l-10.6-1.672a.33.33,0,0,1-.2-.288c-.008-.158-.02-.4,1.587-1.512.884-.614,2-1.3,2.907-1.8.735-.4,2.751-3.057,5.8-7.076l1.186-1.562c3.5-4.6,5.551-7.542,6.1-8.742a.667.667,0,0,1,.153-.24l.016-.014c.934-.741,5.669-4.384,7.167-3.372.5.34.584,1.059.248,2.2-1.488,5.046-11.726,17.33-14.829,20.976-.291.341.017,1.794.317,2.668Zm-10.055-2.139,9.246,1.451c-.225-.771-.556-2.212-.078-2.774,3.085-3.624,13.262-15.831,14.72-20.773.249-.843.239-1.405-.027-1.584-.9-.606-4.448,1.714-6.491,3.33-.009.017-.018.038-.031.067-.565,1.237-2.638,4.213-6.162,8.847l-1.186,1.561c-3.313,4.365-5.138,6.769-5.978,7.227A27.352,27.352,0,0,0,1085.42,1370.17Z" transform="translate(-1043.279 -1263.892)"/><path class="j" d="M996.956,1074.007s-.564,13.878-.035,14.609c1.813,2.5,7.187,4.7,8.413,5.028s-20.054,8.447-20.054,8.447l-12.076-7.744,5.484-1.993s3.623-.487,5.078-1.99,2.162-15.622,2.162-15.622Z" transform="translate(-952.39 -1042.229)"/><path class="k" d="M982.507,1101.088l-12.665-8.121,6.068-2.2c.035,0,3.546-.493,4.916-1.908,1.014-1.047,1.8-9.809,2.084-15.443l.012-.246,11.58-.771-.013.308c-.213,5.228-.423,13.772-.081,14.445,1.7,2.335,6.85,4.535,8.254,4.913a.324.324,0,0,1,.256.3c.015.3.033.648-10.212,4.743-4.975,1.989-10.02,3.914-10.07,3.933Zm-11.423-7.983,11.487,7.366c6.872-2.623,17.546-6.847,19.532-8-1.742-.592-6.43-2.636-8.148-5-.528-.728-.173-10.88-.03-14.474l-10.474.7c-.12,2.281-.806,14.087-2.227,15.555-1.45,1.5-4.829,2.014-5.21,2.068Z" transform="translate(-949.648 -1040.918)"/><path class="j" d="M1025.814,1005.452c1.631-1.082,4.493-3.271,4.569-5.407s-2.36-1.886-3.1-1.549c-.5.225.01-10.459.01-10.459l-16.532-.885s-2.45,9.186-1.858,15.084c.594,5.923,3.309,7.456,7.619,7.648a10.079,10.079,0,0,0,5.139-1.044Z" transform="translate(-981.421 -971.407)"/><path class="k" d="M1015.846,1008.9q-.276,0-.556-.013c-2.484-.111-4.141-.649-5.375-1.745-1.4-1.241-2.217-3.253-2.507-6.152-.59-5.881,1.841-15.091,1.866-15.183l.058-.217,17.031.912-.013.275a100.427,100.427,0,0,0-.149,10.1,3.133,3.133,0,0,1,2.483.216,1.81,1.81,0,0,1,.759,1.688c-.081,2.241-2.975,4.488-4.693,5.628a.277.277,0,0,1-.306-.462c1.63-1.081,4.374-3.193,4.446-5.186a1.275,1.275,0,0,0-.514-1.208,2.7,2.7,0,0,0-2.2-.079.31.31,0,0,1-.305-.026c-.186-.126-.4-.27-.262-5.575.052-2.062.141-4.121.173-4.849l-16.031-.858c-.361,1.422-2.323,9.487-1.794,14.768.593,5.914,3.254,7.216,7.356,7.4a9.9,9.9,0,0,0,5-1.014.277.277,0,0,1,.252.493A10.276,10.276,0,0,1,1015.846,1008.9Z" transform="translate(-980.204 -970.132)"/><path class="j" d="M922.85,1171.536c-1.359-1.2-6.745-2.667-6.745-2.667l-8.615,1.874-3.041-1.211-4.174-.256-7.178-.932s-7.967,2.329-9.26,4.948c-4.448,9.012-15.182,65.667-15.182,65.667l9.61,1.145,7.788-34.606.624,10.439,28.723,1.129,2.159-23.113,5.845,8.664-8.513,16.355,5.863,5.487,17.787-24.159S928.987,1176.962,922.85,1171.536Z" transform="translate(-867.141 -1119.151)"/><path class="c" d="M877.148,1239.248l-10.1-1.2.05-.265c.439-2.315,10.791-56.791,15.2-65.731,1.326-2.687,9.085-4.981,9.415-5.078l.051-.015.052.007,7.178.932,4.2.257,3.007,1.2,8.6-1.871.059.016c.222.06,5.459,1.5,6.845,2.722,6.11,5.4,15.367,27.9,15.757,28.857l.054.131-.084.114L919.476,1223.7l-6.209-5.811.887-1.7-.077,0-28.95-1.138-.531-8.892Zm-9.508-1.639,9.117,1.086,8.128-36.12.716,11.987,28.257,1.11,2.2-23.576,6.322,9.372-8.494,16.319,5.517,5.163,17.536-23.817c-.781-1.887-9.785-23.424-15.571-28.54h0c-1.225-1.083-6-2.434-6.585-2.6l-8.63,1.878-3.075-1.225-4.133-.253-7.142-.927c-.674.2-7.878,2.417-9.055,4.8C878.522,1180.836,868.444,1233.391,867.64,1237.609Zm48.792-44.065-2.08,22.266L921.8,1201.5Z" transform="translate(-865.828 -1118.019)"/><path class="k" d="M1026.622,1038.993a.487.487,0,0,1-.061,0,.461.461,0,0,1-.4-.518l.071-.537a.461.461,0,1,1,.915.12l-.071.537A.462.462,0,0,1,1026.622,1038.993Z" transform="translate(-995.57 -1012.488)"/><path class="k" d="M1066.432,1040.734a.448.448,0,0,1-.061,0,.462.462,0,0,1-.4-.518l.071-.537a.462.462,0,1,1,.915.121l-.071.537A.462.462,0,0,1,1066.432,1040.734Z" transform="translate(-1028.03 -1013.908)"/><path class="k" d="M1067.171,1029.308a.273.273,0,0,1-.146-.042,3.98,3.98,0,0,0-2.818-.459.277.277,0,0,1-.138-.536,4.5,4.5,0,0,1,3.248.524.277.277,0,0,1-.146.512Z" transform="translate(-1026.311 -1004.852)"/><path class="k" d="M1023.479,1033.992a4.965,4.965,0,0,1-2.27-.8.351.351,0,0,1-.011-.431,7.438,7.438,0,0,0,1.416-2.795,6.4,6.4,0,0,0,.338-2.022c-.028-.168-.07-.193-.351-.29l-.137-.049a6.56,6.56,0,0,0-2.767.1.277.277,0,0,1-.122-.54,7.2,7.2,0,0,1,3.083-.079l.125.044c.828.287.967.689.367,2.977a7.789,7.789,0,0,1-1.391,2.825,7.1,7.1,0,0,0,1.654.511.276.276,0,0,1,.354.25.3.3,0,0,1-.19.285A.316.316,0,0,1,1023.479,1033.992Z" transform="translate(-990.026 -1003.845)"/><path class="e" d="M1084.4,1477.246a.269.269,0,0,1-.043,0l-13.846-2.149a.277.277,0,1,1,.085-.547l13.846,2.149a.277.277,0,0,1-.042.551Z" transform="translate(-1031.543 -1368.825)"/><path class="j" d="M1071.242,1156.072l-5.291-4.433-11.415,4.177,3.456,4.433Z" transform="translate(-1018.708 -1105.53)"/><path class="j" d="M987.186,1155.526l3.938-3.887,8.5,4.177-3.395,3.855Z" transform="translate(-963.79 -1105.53)"/><path class="c" d="M1001.045,1159.123l13.95-4.4-5.828-4.883-11.508,4.211-8.51-4.184-4.324,4.269,9.539,4.374,2.954-3.354c-.536,5.272-3.36,33.964-2.609,45.711a.291.291,0,0,0,.291.273h.019a.291.291,0,0,0,.272-.309c-.754-11.792,2.116-40.789,2.619-45.731Zm8.006-8.617,4.754,3.984-12.549,3.956-3.086-3.958Zm-14.817,7.393-8.537-3.914,3.551-3.506,8.04,3.952Z" transform="translate(-961.865 -1104.064)"/><path class="k" d="M1027.684,1070.911c-.27.3,1.122,1.5,2.26,1.506,2.86,0,3.745-2.031,3.1-1.711a6.819,6.819,0,0,1-3.1.663C1028.129,1071.236,1027.99,1070.573,1027.684,1070.911Z" transform="translate(-996.785 -1039.51)"/><path class="i" d="M1015.211,985.776s15.468,3.654,16.975,11.361a4.176,4.176,0,0,1,1.651-.053,2.005,2.005,0,0,1,1.084.578l1.391-12.2Z" transform="translate(-986.642 -970.031)"/><path class="h" d="M1030.218,917.1v2.882h-29.742V917.1a14.871,14.871,0,0,1,29.742,0Z" transform="translate(-974.627 -902.215)"/><path class="j" d="M1032.5,904.193s-11.809,4.044-15.218,15.622c-.341,1.159-5.075,1.182-5.354-.369-1.477-8.222,5.141-15.589,5.141-15.589a14.885,14.885,0,0,1,15.431.336Z" transform="translate(-983.792 -901.865)"/><rect class="m" width="33.646" height="2.75" rx="1.375" transform="translate(22.297 16.892)"/><path class="c" d="M961.789,1281.995h-.006a.252.252,0,0,1-.245-.258,125.751,125.751,0,0,1,2.494-19.686.252.252,0,1,1,.492.106,125.193,125.193,0,0,0-2.483,19.593A.252.252,0,0,1,961.789,1281.995Z" transform="translate(-942.877 -1195.397)"/></g></g></svg>